<svg xmlns="http://www.w3.org/2000/svg" viewBox="0 0 2335.21 3332.51"><defs><style>.cls-1{fill:#fed500;}.cls-2{fill:#3b56a6;}.cls-3{fill:#a09f9f;}</style></defs><title>Entropy Crusade</title><g id="Layer_2" data-name="Layer 2"><path d="M3404.14,1874.08c-425.64-123.5-649.51-329.81-737.34-429H2393.73c-88.11,99.52-311.95,305.6-737.28,429l-93.91,27.25,18.22,96.07c11,57.86,275.74,1421.31,894.2,1792.39l55.34,33.2,55.33-33.2c618.46-371.08,883.24-1734.53,894.21-1792.39l18.21-96.07Z" transform="translate(-1162.84 -490.49)"/><path class="cls-1" d="M3374.26,1977.28S3351.32,2097.91,3304,2277c-14.16,52.7-30.3,110.59-48.58,171.89-118.48,396.31-328.2,937.27-640.8,1189.47a746.07,746.07,0,0,1-84.24,59.15,727.55,727.55,0,0,1-87.65-61.84c-310.81-253.27-519.45-791.9-637.4-1186.78-18.46-61.3-34.59-119.19-48.57-171.89-47.32-179.07-70.27-299.7-70.27-299.7,407.79-118.3,642.24-308.12,756.24-426.24h175.12C2731.85,1669.16,2966.3,1859,3374.26,1977.28Z" transform="translate(-1162.84 -490.49)"/><path class="cls-1" d="M3304,2277c-14.16,52.7-30.3,110.59-48.58,171.89h-640.8V3638.34a746.07,746.07,0,0,1-84.24,59.15,727.55,727.55,0,0,1-87.65-61.84V2448.87h-637.4c-18.46-61.3-34.59-119.19-48.57-171.89h686V1551h171.89V2277Z" transform="translate(-1162.84 -490.49)"/></g><g id="Layer_1" data-name="Layer 1"><path d="M3498.05,1894.1s-120.18-175.94-294.61-82.84a19.49,19.49,0,0,1-14.35,1.56l-158.63-43.56a19.55,19.55,0,0,0-21.7,8.37l-6.94,10.95a19.57,19.57,0,0,1-22.63,8.09L2943.55,1785a19.49,19.49,0,0,1-12.88-14l-12.51-52.44a19.41,19.41,0,0,1,5.86-18.9l72.06-65.29a19.4,19.4,0,0,0,6.39-14.39V1282.35a19.41,19.41,0,0,0-6.13-14.15l-59.12-55.58a19.39,19.39,0,0,1-5.8-10.61c-5.34-29-35-155.34-158.69-251.1a19.4,19.4,0,0,1-6.72-21.16c30.13-96.16,68.88-321.13-179.72-426.18-79.57-33.63-234.41-2.84-399.81,97.21,0,0-309.18,170.42-369.63,110.67a19.33,19.33,0,0,1-4.94-19.4c3.74-12.15,17.5-30.52,66-33.8a19.46,19.46,0,0,0,15.84-28.7c-19.75-36.51-71-92.35-194.59-66.85a19.88,19.88,0,0,0-2.74.77c-66.15,24-174.85,101.85-112.75,242.53,6.66,15.09-7.32,31.09-23.22,26.56-14.93-4.25-34.3-9.89-59-17.28-88.38-26.42-263.66-6.57-327.24,188.73a19.76,19.76,0,0,0-.57,2.17c-16.2,78.89-34.29,194.24,107.63,283.17a19.54,19.54,0,0,0,29.93-17c-1.17-44.86,6-116.81,63.24-121.9a19,19,0,0,1,7.63.93c15.47,5.14,77.56,27.54,145.5,76.85,78.7,57.17,160.55,84.43,313.42,57.17,0,0,142-25.42,261.48-152.74.28-.3.55-.6.81-.92l.14-.17c13.94-16.73,40.68-1.57,33.43,18.94A349.28,349.28,0,0,0,2122.7,1202a19.4,19.4,0,0,1-5.81,10.61l-59.13,55.59a19.41,19.41,0,0,0-6.13,14.15V1620a19.41,19.41,0,0,0,6.39,14.4l72.06,65.29a19.42,19.42,0,0,1,5.87,18.9l-12.69,53.16a19.5,19.5,0,0,1-13.58,14.2l-38.85,11.17a19.56,19.56,0,0,1-22.62-9.49l-2.37-4.4a19.56,19.56,0,0,0-23.76-9.13l-138.24,49.12a19.62,19.62,0,0,1-15.93-1.25c-36.57-19.85-198.79-96.18-296.22,51.52l16.12-21.6s-2.32,0-23.79,33.34a19.46,19.46,0,0,0-1,19.23c250.85,500.81,856,548.76,959.23,548.86h7.7c104.09.09,723.94-42.69,968.15-559.18" transform="translate(-1162.84 -490.49)"/><path class="cls-2" d="M1986.91,1019s254.26-258.22,450.53-119.8L2324,906S2141.8,941.94,1986.91,1019Z" transform="translate(-1162.84 -490.49)"/><path class="cls-2" d="M1597.57,1916.18s68.47-121.5,232.8-57.38c0,0,155.18,343.15,502.08,471.4C2332.45,2330.2,1773.31,2204.19,1597.57,1916.18Z" transform="translate(-1162.84 -490.49)"/><path d="M1766.47,1961.59s243.44,319.86,566,394.86l25.73-26.25S1991.65,2190.75,1766.47,1961.59Z" transform="translate(-1162.84 -490.49)"/><path class="cls-2" d="M3444.08,1916.18s-68.47-121.5-232.79-57.38c0,0-155.19,343.15-502.09,471.4C2709.2,2330.2,3268.35,2204.19,3444.08,1916.18Z" transform="translate(-1162.84 -490.49)"/><path class="cls-3" d="M2070,1835.18c67,106.89,160.22,184.67,244.5,238.58C2257.84,1962.94,2172,1858.57,2139,1820.25Z" transform="translate(-1162.84 -490.49)"/><path class="cls-3" d="M2971.65,1835.18l-19.23-4.16c-56.78,80.6-128,143.09-196.13,190.26-10.24,17.17-20.06,34.73-29.14,52.48C2811.43,2019.85,2904.64,1942.07,2971.65,1835.18Z" transform="translate(-1162.84 -490.49)"/><path class="cls-3" d="M3128.74,1862.05c-171.1,309.29-607.91,458-607.91,458v-33.28s-101.67-80.88-166.82-117.85c-2.8-9.25-6.08-18.6-9.6-28-212.16-112.31-329.19-312.54-329.19-312.54L1892,1868.93c152.91,337.51,628.84,499.52,628.84,499.52s475.93-162,628.84-499.52Z" transform="translate(-1162.84 -490.49)"/><path d="M3275.2,1961.59s-243.44,319.86-566,394.86l-25.72-26.25S3050,2190.75,3275.2,1961.59Z" transform="translate(-1162.84 -490.49)"/><path class="cls-3" d="M2127.66,1257.74l-41.75,34s-10.89,275.32,0,326l55.89,41.72V1492.6l-30.36-187,18.91-6.18Z" transform="translate(-1162.84 -490.49)"/><polygon points="935.78 986.33 935.78 1125.39 969.47 1140.85 969.47 1025.73 935.78 986.33"/><path class="cls-3" d="M2914,1257.74l41.75,34s10.9,275.32,0,326l-55.89,41.72V1492.6l30.38-187-18.93-6.18Z" transform="translate(-1162.84 -490.49)"/><path class="cls-3" d="M2888.35,1343.46s-122.48,4.67-263.52-71.82l-104,71.9-104-71.9c-141.05,76.49-263.54,71.82-263.54,71.82,61.12,183.09,5,435.75,5,435.75,188,166.88,228,361.56,228,361.56,44.67-88.07,49.37-264.21,49.37-264.21l-23.5-296.67c-145.75-9.27-178.66-148.33-178.66-148.33l159.84,16.22c112.84,48.67,84.64,310.58,84.64,310.58l42.86,51,42.87-51s-28.21-261.91,84.63-310.58l159.85-16.22s-32.91,139.06-178.66,148.33L2606,1876.56s4.69,176.14,49.36,264.21c0,0,40-194.68,228-361.56C2883.41,1779.21,2827.23,1526.55,2888.35,1343.46ZM2257,1598.33l4.19,146.63c127.44,134.43,126.93,268.86,126.93,268.86-42.31-122.07-170.82-261.13-170.82-261.13V1559.54Zm567.36,154.36s-128.5,139.06-170.82,261.13c0,0-.5-134.43,126.94-268.86l4.18-146.63,39.7-38.79Z" transform="translate(-1162.84 -490.49)"/><path class="cls-3" d="M2806.6,1286.92c44.3,8.4,76.81,12.54,76.81,12.54-2.35-245.68-206.87-359.24-206.87-359.24l-155.71-25.5-155.71,25.5s-204.52,113.56-206.86,359.24c0,0,32.51-4.14,76.81-12.54,5.22-181.48,153-296,153-296-78.2,134.28-85,251.32-85.44,281.39,46.07-11.28,93.94-26.14,128.27-44.73l89.88,60.26,89.88-60.26c34.33,18.59,82.2,33.45,128.27,44.73-.39-30.07-7.23-147.11-85.44-281.39C2653.54,990.94,2801.36,1105.44,2806.6,1286.92Z" transform="translate(-1162.84 -490.49)"/><polygon points="1780.21 986.33 1780.21 1125.39 1746.52 1140.85 1746.52 1025.73 1780.21 986.33"/><path class="cls-2" d="M2627.56,888.13c30.77,3.48,62.34,9.92,87.28,18,20.47-49.61,15.83-99.79,11.06-137.16-16.4-128.12-141.64-207.6-219-212.76-150.18-10-274.69,89.7-387.33,143.73-85.08,40.79-212,87.67-268.23,76.83-88.3-17-115.68-59-112.5-91,7.07-71.49,112.32-55.87,112.32-55.87-13.05-23.59-60.35-29.64-60.35-29.64-118.76-15-157.16,51.58-166.25,102.84-22.8,128.55,126.59,182.93,126.59,182.93l-.47.27c26.37,8.39,68.66,13.89,130.54-.27,0,0-62.15,61-195.27,19.75-56.3,5.06-110.79-12.77-110.79-12.77-60.89-24-105.53-30-105.53-30-178.6-26-237.13,150.38-237.13,150.38-45.76,147,36.2,203.18,36.2,203.18a249.25,249.25,0,0,1,1.56-43.63h0s0-.16.07-.48c2.06-15.23,5.68-28.12,10.62-38.89,17.87-48.13,63.19-120.73,171.3-99.42,0,0,24.63,8.67,59.78,39.87,0,0-80.12-25.57-124.83,11.07,62.82,7.27,127.08,44,127.08,44,101.46,54,138,70,138,70,150.17,50,279.21-117.86,279.21-117.86-52.76,62-281.77,88.47-334,1.74,172.68,19.7,322.26-121.22,397.27-168.8C2185.54,793.18,2255.43,775,2422.47,787c-97.15-65.33-204.39-46.25-204.39-46.25s133.22-49.29,172.27-55.47C2595,652.91,2626.07,806.47,2627.56,888.13Z" transform="translate(-1162.84 -490.49)"/><path class="cls-2" d="M2290.87,1472.3l80.75,5.86s31.74,13.13,33.43,46.73C2405.05,1524.89,2320.54,1531.22,2290.87,1472.3Z" transform="translate(-1162.84 -490.49)"/><path class="cls-2" d="M2750.8,1472.3l-80.77,5.86s-31.75,13.13-33.41,46.73C2636.62,1524.89,2721.1,1531.22,2750.8,1472.3Z" transform="translate(-1162.84 -490.49)"/></g><g id="Layer_3" data-name="Layer 3"><polygon points="1368.24 2165.16 1190.11 2040.14 1368.24 2463.6 1546.38 2040.14 1368.24 2165.16"/><polygon points="1065.39 2463.6 938.53 2639.14 1368.24 2463.6 938.53 2288.06 1065.39 2463.6"/><polygon points="1368.24 2762.05 1546.38 2887.06 1368.24 2463.6 1190.11 2887.06 1368.24 2762.05"/><polygon points="1671.1 2463.6 1797.96 2288.06 1368.24 2463.6 1797.96 2639.14 1671.1 2463.6"/></g></svg>