<svg xmlns="http://www.w3.org/2000/svg" viewBox="0 0 1467.67 1094.93"><title>Moxie</title><g id="Calculator"><g id="Hand"><path d="M2006.07,2170.39a99.67,99.67,0,0,0,1.12,36c1,4.53,2.41,9.21,5.73,12.44a7.81,7.81,0,0,0,3.65,2.16c2.4.53,4.85-.61,6.91-2,6.47-4.23,11.18-10.65,17.2-15.5,4.8-3.86,10.7-6.74,16.86-6.57a26,26,0,0,1,10.12,2.64,24,24,0,0,1,6.9,4.55,24.55,24.55,0,0,1,4.77,7.2c2.9,6.23,4.39,13,6,19.67a397.39,397.39,0,0,0,16.39,51.44c1.31,3.31.46,7.08,1.6,10.44,3.19,9.32,6.82,18.47,10.45,27.61,7.3,18.38,14.65,36.89,25.19,53.62,7.95,12.63,17.6,24.09,27.23,35.5,8.45,10,20.75,14.94,32.84,20a40.28,40.28,0,0,0,9.85,3.16c7.14,1,14.23-1.86,20.59-5.25,15.33-8.19,28.55-19.77,41.61-31.25l51.14-44.93c1.37-5.22,4.66-9.7,4.43-15.1-.14-3.41-1.69-6.58-3.23-9.62a202.85,202.85,0,0,0-13.71-23.76c-2-2.89-4.18-5.79-5-9.21-3.06,3.05-7.29,4.44-11.31,6-13.76,5.39-27.69,10.82-42.35,12.75a44.21,44.21,0,0,1-16.06-.32c-12.37-2.93-21.37-13.38-28.91-23.62a112.86,112.86,0,0,1-7.93-11.94,134,134,0,0,1-7.38-16.56l-18.67-47.49c-2.58-6.56-4.8-13.24-7.8-19.62-6.38-13.57-12.84-27.28-22.3-38.91a53.91,53.91,0,0,0-10.81-10.42,68.16,68.16,0,0,0-9.81-5.39c-16.39-7.8-36.55-15.52-54.48-12.73-5.1.8-10.63,1.37-15.72,2.13s-9.89,2.76-14.6,4.82c-5,2.18-10.12,4.56-13.75,8.64a39.36,39.36,0,0,0-4,5.73C2014.32,2154.13,2007.37,2161.86,2006.07,2170.39Z" transform="translate(-1834.35 -1605.35)" style="fill:#5bb8e8"/><path d="M2309,2300.46a156.15,156.15,0,0,1,8.62,17.27c.84,2.1,1.59,4.25,2.6,6.28a38.67,38.67,0,0,0,2.68,4.5A117.38,117.38,0,0,1,2261,2346.3a65.59,65.59,0,0,1-19.68-2.57,74.07,74.07,0,0,1-15.16-7.19c-20-11.82-38.75-28.19-45.69-50.37l-12-38.19c-8.32-26.56-16.7-53.27-29.27-78.1,2.95.67,5.48,3.27,7.42,5.6,11.84,14.27,16.33,33,21.85,50.73a366.27,366.27,0,0,0,26.34,63.13c4.77,8.95,13,15.43,20.46,22.25a55.57,55.57,0,0,0,10,7.61c6.8,3.79,14.79,5.06,22.56,4.72s15.41-2.22,22.88-4.38C2284.47,2315.57,2299.18,2310.73,2309,2300.46Z" transform="translate(-1834.35 -1605.35)" style="fill:#5e7bbd"/><path d="M2075,2197.43a95.4,95.4,0,0,1,14.56,24.38,88,88,0,0,1,4,12.81c2.78,11.74,6.21,23,7.29,34.93.07.66-.22,1.52-.88,1.61s-1-.56-1.29-1.1c-8.79-18.33-11.26-39.24-20.5-57.34-3.29-6.45-7-12.26-13.69-15.1-.57-.25,1.24-.67,1.46-.71,1.46-.25,1.12-.23,2.72-.45a11.28,11.28,0,0,1,2.71-.13C2072.83,2196.41,2074,2196.28,2075,2197.43Z" transform="translate(-1834.35 -1605.35)" style="fill:#fcebf2"/><path d="M2110.55,2134.7c-2.06,1.6-5.78-.15-9.83-.84-3-.5-8.32-.73-11.27-1.23a82.25,82.25,0,0,0-13.77-.75,99.55,99.55,0,0,0-20.4,2.48c-13.06,2.77-22.8,3.91-31.21,14.28-3,3.7-7.63,13.64-9.35,18.09a47.94,47.94,0,0,0-2.67,11.78c-1,8.79-.32,13.62.56,22.75.2,2,1.28,7,2.49,8.64s3,6.42,4.82,5.47c1.52-.79,5.28-3.19,6.8-4a33,33,0,0,1,4.65-2.32c1-.22-.67,1.59.18,2.16-.87,3.74-3.27,6-6,8.72-1.65,1.62-3.86,3-6.15,2.63s-3.86-2.45-5.2-4.34c-2.69-3.78-5.4-7.61-7.15-11.91-4.4-10.87-2.12-23.15.22-34.64a44.43,44.43,0,0,1,3-10.41,57.21,57.21,0,0,1,3.86-6.4c3.24-5,6-10.39,10.09-14.8,6.55-7.12,15.89-11.18,25.38-13s19.25-1.65,28.92-1.46a89.06,89.06,0,0,1,15.48,1.23C2099.82,2128,2105.66,2131.36,2110.55,2134.7Z" transform="translate(-1834.35 -1605.35)" style="fill:#fcebf2"/><path d="M2208.64,2432.45c-12.54-4.07-25.35-8.29-35.76-16.39-7.52-5.84-13.44-13.46-19.11-21.11-12.85-17.33-24.91-35.43-33.51-55.22-5.53-12.72-9.59-26-13.63-39.29q-10.93-35.89-21.91-71.77c-2.14-7-4.34-14.07-8.41-20.12s-10.38-11-17.64-11.72c-8-.77-15.55,3.63-21.51,9s-11,11.73-17.48,16.39a2,2,0,0,1-1.45.58,4.13,4.13,0,0,1-1.5-.74,22.59,22.59,0,0,1-8.81-12.55,43.47,43.47,0,0,1-1-5.33,151.94,151.94,0,0,1-1-29c.37-6.93,3-13.72,6.43-19.77a71.43,71.43,0,0,1,8.08-12.29c5.91-6.76,14.27-11.09,23-13.28,16.83-4.24,34.23-5.94,51.25-2.54a48.65,48.65,0,0,1,15.25,5.28c9.17,5.4,19.42,8.89,26.74,16.61a103.77,103.77,0,0,1,7.18,8.62c10,13.11,18.77,27.25,24.66,42.64,2.21,5.79,4.58,11.56,6.44,17.47a426.59,426.59,0,0,0,23.34,58.57c2.87,5.88,5.68,12,10,16.88,4,4.51,9,7.93,14,11.3a46,46,0,0,0,9.21,5.26c4.1,1.57,8.54,2,12.92,2.13a93,93,0,0,0,14.36-.32c16-1.8,31.36-9.76,44.93-18.47" transform="translate(-1834.35 -1605.35)" style="fill:none;stroke:#231f20;stroke-miterlimit:10;stroke-width:3px"/></g><rect x="1911.28" y="1868.66" width="196.54" height="297.5" rx="9.34" transform="translate(-2656.58 710.78) rotate(-51.13)" style="fill:#fff"/><rect x="1920.5" y="1885.8" width="174.37" height="260.22" transform="translate(-2656.1 708.77) rotate(-51.13)" style="fill:#010203"/><path d="M1901.56,1930.38a1.69,1.69,0,1,1-.26-2.37A1.68,1.68,0,0,1,1901.56,1930.38Z" transform="translate(-1834.35 -1605.35)" style="fill:#4d4d4d"/><path d="M1901,1929.89a.91.91,0,0,1-1.41-1.14.91.91,0,0,1,1.41,1.14Z" transform="translate(-1834.35 -1605.35)" style="fill:#010101"/><path d="M2121,2107.2a5.43,5.43,0,1,1-.82-7.63A5.43,5.43,0,0,1,2121,2107.2Z" transform="translate(-1834.35 -1605.35)" style="fill:#e6e7e7"/><path d="M2121.08,2107.29a5.58,5.58,0,1,1-.84-7.83A5.58,5.58,0,0,1,2121.08,2107.29Zm-8.45-6.8a5.27,5.27,0,1,0,7.42-.8A5.28,5.28,0,0,0,2112.63,2100.49Z" transform="translate(-1834.35 -1605.35)" style="fill:#fff"/><path d="M2120.55,2099.06a6.08,6.08,0,1,1-8.55.92A6.09,6.09,0,0,1,2120.55,2099.06Zm-6.81,8.45a4.77,4.77,0,1,0-.72-6.71A4.78,4.78,0,0,0,2113.74,2107.51Z" transform="translate(-1834.35 -1605.35)" style="fill:#d0d2d3"/><path d="M1897,1933.49h0a1.23,1.23,0,0,1,.18,1.72l-11.78,14.62a1.22,1.22,0,0,1-1.72.18h0a1.22,1.22,0,0,1-.18-1.72l11.77-14.61A1.24,1.24,0,0,1,1897,1933.49Z" transform="translate(-1834.35 -1605.35)" style="fill:#d0d2d3"/><path d="M1839.33,2006.44l4,3.24,43.71,35.23,75.37,60.74,93.09,75s.86.7,1.26,1a8.53,8.53,0,0,0,1.22.76c.37.2.93.42.93.42a9.8,9.8,0,0,0,1.41.42,12.45,12.45,0,0,0,1.33.18,9.86,9.86,0,0,0,1.64,0,10.67,10.67,0,0,0,1.45-.28,11.14,11.14,0,0,0,1.15-.39,4.73,4.73,0,0,0,.65-.31,8,8,0,0,0,1.11-.66,11.67,11.67,0,0,0,1-.87,6.65,6.65,0,0,0,.84-.91l106.8-132.52,1-1.26,2.76-3.42s1.19-1.49,1.48-1.89a9.14,9.14,0,0,0,.76-1.34,10.27,10.27,0,0,0,.64-1.89,8.76,8.76,0,0,0,.21-1.49,12.26,12.26,0,0,0,0-1.44s-.09-.66-.31-1.62a9,9,0,0,0-1.27-2.73,8.63,8.63,0,0,0-1.86-2l-4.68-3.78-131.9-106.3-64.51-52-13.1-10.55-3.2-2.58a10.18,10.18,0,0,0-3.1-1.5,10.33,10.33,0,0,0-3.34-.29,9.82,9.82,0,0,0-4.49,1.65,15.64,15.64,0,0,0-3.28,3.49l-5.36,6.65-13.4,16.63L1917.19,1895l-10.4,12.91-13.29,16.49L1877,1944.82l-14.45,17.92-16.93,21-7.43,9.21a12,12,0,0,0-2,3.88,10.25,10.25,0,0,0-.23,3.41,8.84,8.84,0,0,0,.69,2.59,9.41,9.41,0,0,0,1.37,2.25c.6.66.75.81.75.81Z" transform="translate(-1834.35 -1605.35)" style="fill:none;stroke:#231f20;stroke-miterlimit:10;stroke-width:3px"/></g><g id="Protractor"><g id="Under"><path d="M2080.28,2404.81a26.19,26.19,0,0,0,5.22,12.22,40.89,40.89,0,0,0,8,7.41c11.39,8.52,24.57,14.46,38.25,18.34s27.87,5.72,42.07,6.51c4.78.27,9.25-2.8,13.84-4.12a77,77,0,0,0,11.53-4c6.35-3,11.73-7.65,17-12.25l28.49-24.77a7,7,0,0,0,2.1-2.51c2.2-5.51,7.42-9.36,11.8-13.36q14.16-12.9,27.49-26.66c5.87-6,11.63-12.23,18.1-17.62s13.74-10,21.81-12.46c3.8-1.15,8-.4,11.93.07a82.79,82.79,0,0,1,9.27,1.48,54.57,54.57,0,0,1,19.51,9.63,163.39,163.39,0,0,1,16.37,14.54,7,7,0,0,1,2.2,3.12,76.48,76.48,0,0,1,11.94,13.89c5.54,8.22,9.49,17.71,10,27.61a14.89,14.89,0,0,1-.47,5.24c-.81,2.61-2.72,4.71-4.58,6.71l-13.63,14.68c-9.09,9.8-13.9,22.79-19.38,35-1.17,2.6-2.29,5.22-3.42,7.84a92.88,92.88,0,0,0-4,10.41,75.81,75.81,0,0,0-2.2,11.19q-1.18,8.66-1.63,17.37a147.1,147.1,0,0,0-30.38,7.95c-1.91.72-3.81,1.48-5.71,2.24a31.55,31.55,0,0,0-4.06,1.84c-1.18.67-2.28,1.49-3.42,2.23a88.52,88.52,0,0,1-9.57,5,110.49,110.49,0,0,0-11.51,6.52c-12.11,7.88-23.4,16.35-35.75,23.84-3.26,2-7,3.37-10.42,5.15-21.39,11.25-45.89,14.41-70,13-13.21-.79-26.84-2.13-39.66-5.43-5.37-1.38-10.64-3.16-15.89-4.94l-21.31-7.21a83.11,83.11,0,0,1-11-4.32c-5.41-2.72-10.16-6.55-14.86-10.36l-12.77-10.34c-4.39-3.55-7.94-8-11.88-12a88.33,88.33,0,0,1-10.24-12c-1.59-2.35-3-4.83-4.37-7.3l-6.36-11.32c-2.69-4.78-5.37-9.56-7.68-14.53-4.25-9.16-7.17-18.86-10.08-28.52-1.29-4.28-1.14-8.66-1.31-13.12-.1-2.71-.07-5.53,1.14-8,1.3-2.6,3.78-4.38,6.23-6,16.62-10.64,36-16.23,55.26-20.37a12.3,12.3,0,0,1,4.26-.39C2077.88,2402.16,2080.08,2403.4,2080.28,2404.81Z" transform="translate(-1834.35 -1605.35)" style="fill:#5bb8e8"/><path d="M2119.93,2557.89c12.06,5.11,25,8,38,9.7,23,2.94,46.72,1.93,69.06-4.44s43.28-18.23,59.18-35.16c7.62-8.11,17.9-13,28.1-17.42,13.14-5.7,27.13-10.26,41.44-9.89-.22-.11,2.16,0,1.94-.14,4.62-15.2,7.26-30.18,14.26-44.45,4.62-9.41,10.19-18.32,15.75-27.2l10.73-17.15c-17.4-2.59-34.27,6.6-48.78,16.54a407.33,407.33,0,0,0-64.07,54.4c-7.24,7.56-14.18,15.4-21.55,22.83a280,280,0,0,1-22.56,20.45,108.92,108.92,0,0,1-10.31,7c-13.19,8.42-26.57,16.93-41.47,21.73-21.85,7-45.42,5.63-68.28,3.55-.35,0-.8-.14-.86-.49S2120.14,2557.61,2119.93,2557.89Z" transform="translate(-1834.35 -1605.35)" style="fill:#5e7bbd"/><path d="M2065.24,2419.58c.18.29.33.54.53.83,0,0,0,.05,0,.06l.1.14c4.19,6.26,10.17,11.23,16,16a107.87,107.87,0,0,0,10.26,7.68,82.62,82.62,0,0,0,14.31,6.88c8.87,3.48,18,6.57,27.54,7.72s19.13,1.1,28.72,1.05a123.28,123.28,0,0,1-24.43-6.05c-5.69-2-11.22-4.43-16.72-6.9a79.17,79.17,0,0,1-10.54-5.38c-1.87-1.19-3.84-2.33-5.74-3.47-6.9-4.14-13.84-8.32-20-13.53a26.38,26.38,0,0,1-8.13-12.48,81.21,81.21,0,0,0-11.73,7.2C2065.23,2419.44,2065.24,2419.48,2065.24,2419.58Z" transform="translate(-1834.35 -1605.35)" style="fill:#5e7bbd"/><path d="M2017.24,2438.11c.28,1.92.19,3.55.57,5.49.11.58.12,2.09.23,2.74s.55,3.34.76,4.13c1,3.62,2.55,9,3.92,12.43,6.09,15.44,12.38,31.2,22.62,45,6.25,8.46,13.47,16.65,20.35,25.11,2.46,3,4.56,6.08,5.14,9.93-4.9-2.82-9.87-5.69-13.91-9.66a66.77,66.77,0,0,1-7.89-10c-2.32-3.37-5.18-6.18-7.51-9.54s-4.6-7.07-7-10.47c-2.71-3.91-5-8.1-7.44-12.18a111.48,111.48,0,0,1-9.59-20.27c-3.09-8.66-5.12-17.57-7.26-26.51a28.94,28.94,0,0,1-.87-4.8,2.87,2.87,0,0,1,.67-2.44,3.06,3.06,0,0,1,1.38-.56,8.55,8.55,0,0,1,3.13-.31C2015.63,2436.42,2017.09,2437.07,2017.24,2438.11Z" transform="translate(-1834.35 -1605.35)" style="fill:#fceef5"/><path d="M2330.91,2340.34c-8.47,1.17-14.74,6.88-21.69,11.2-9.13,5.66-55.56,51.61-84.17,78.51-1.05,1-3.48,1.56-4.89,1.87s-4.46.41-4.9-1c-.8-2.51,3.44-3.27,5.08-5.33a33.17,33.17,0,0,1,5.88-5.27c16.46-12.71,30.26-28.46,44.57-43.55s29.46-29.82,47.71-39.79c2.81-1.53,5.16-3.89,8.36-3.92a4.69,4.69,0,0,1,2.09.39c1.66.77,2.41,2.69,3,4.43.3.89,0,.69.35,1.58C2332.46,2340,2331.44,2340.26,2330.91,2340.34Z" transform="translate(-1834.35 -1605.35)" style="fill:#fde6eb"/><path d="M2324.83,2333.05c-13.51,6.47-25.38,16.59-36.79,26.32-5.09,4.34-9.29,9.62-14.21,14.15-1.81,1.67-3.62,3.33-5.27,5.15-1.52,1.66-2.91,3.45-4.29,5.23s-3.22,2.81-4.86,4.52c-10.1,10.54-19.89,21.58-31.07,31-16.29,13.7-34.73,26.55-55.89,28.86-13.95,1.51-28-1.71-41.41-5.73-14.4-4.31-28.93-9.81-39.92-20.06-4.31-4-8.47-10.56-10.82-16" transform="translate(-1834.35 -1605.35)" style="fill:none;stroke:#231f20;stroke-miterlimit:10;stroke-width:3px"/></g><rect x="2040.22" y="2103.6" width="61.22" height="491.63" transform="translate(-2869.18 340.45) rotate(-41.2)" style="fill:#fed622"/><rect x="2073.01" y="2091.28" width="23.81" height="491.63" transform="translate(-2857.57 346.58) rotate(-41.2)" style="fill:#f6be3d"/><rect x="2185.69" y="2521.15" width="21.4" height="3.83" transform="translate(-2952.44 465.88) rotate(-41.2)" style="fill:#c89839"/><rect x="2145.79" y="2475.57" width="21.4" height="3.83" transform="translate(-2932.32 428.49) rotate(-41.2)" style="fill:#c89839"/><rect x="2105.18" y="2429.18" width="21.4" height="3.83" transform="translate(-2911.83 390.35) rotate(-41.2)" style="fill:#c89839"/><rect x="2064.85" y="2383.12" width="21.4" height="3.83" transform="translate(-2891.51 352.64) rotate(-41.21)" style="fill:#c89839"/><rect x="2024.52" y="2337.05" width="21.4" height="3.83" transform="translate(-2871.1 314.28) rotate(-41.2)" style="fill:#c89839"/><rect x="1983.63" y="2290.35" width="21.4" height="3.83" transform="translate(-2850.48 275.91) rotate(-41.2)" style="fill:#c89839"/><rect x="1943.59" y="2244.6" width="21.4" height="3.83" transform="translate(-2830.26 238.18) rotate(-41.2)" style="fill:#c89839"/><rect x="1903.26" y="2198.54" width="21.4" height="3.83" transform="translate(-2809.9 200.21) rotate(-41.2)" style="fill:#c89839"/><rect x="2005.53" y="2317.15" width="11.9" height="3.83" transform="translate(-2863.94 294.26) rotate(-41.21)" style="fill:#c89839"/><rect x="1964.93" y="2270.76" width="11.9" height="3.83" transform="translate(-2843.44 256.02) rotate(-41.21)" style="fill:#c89839"/><rect x="1924.04" y="2224.06" width="11.9" height="3.83" transform="translate(-2822.77 217.29) rotate(-41.21)" style="fill:#c89839"/><rect x="2126.1" y="2454.86" width="11.9" height="3.83" transform="translate(-2924.74 407.31) rotate(-41.2)" style="fill:#c89839"/><rect x="2086.75" y="2409.92" width="11.9" height="3.83" transform="translate(-2904.84 369.98) rotate(-41.2)" style="fill:#c89839"/><rect x="2045.86" y="2363.21" width="11.9" height="3.83" transform="translate(-2884.28 332.06) rotate(-41.21)" style="fill:#c89839"/><rect x="2166.56" y="2501.09" width="11.9" height="3.83" transform="translate(-2945.2 445.66) rotate(-41.21)" style="fill:#c89839"/><rect x="2040.22" y="2103.6" width="61.22" height="491.63" transform="translate(-2869.18 340.45) rotate(-41.2)" style="fill:none;stroke:#231f20;stroke-miterlimit:10;stroke-width:3px"/><g id="Over"><path d="M2016.62,2438.6c-1.88.43-4,.81-5.66-.12-1.94-1.08-2.64-3.49-3.11-5.66a139.72,139.72,0,0,1,4.58-75,72.91,72.91,0,0,1,6.86-14.93c3.87-6.14,9-11.32,14.17-16.45,7.4-7.39,14.89-14.87,23.91-20.17,6.59-3.87,13.83-6.47,21.06-9a74.09,74.09,0,0,1,19.3-3.65,77.12,77.12,0,0,1,23.34,2.19,261.9,261.9,0,0,1,26.47,7.51c4.46,1.6,9,3.5,12.37,6.79a32.09,32.09,0,0,1,6.05,8.92,96.71,96.71,0,0,1,6.61,17c.69,2.45,1.28,5.09.46,7.5-1.71,5.05-8.27,6.23-13.6,6.09-12.68-.34-25.44-3.3-37.93-1.08-11.16,2-21.23,8-30.15,15-4.34,3.4-8.56,7.17-11.12,12a35.4,35.4,0,0,0-3.59,21.65c.13.68.43,2.27.6,3s.92,1.89,1.08,2.63c1,4.37,1,7.91-2.37,10.35a98.5,98.5,0,0,1-14.1,8.78,196.89,196.89,0,0,1-45.23,16.51Z" transform="translate(-1834.35 -1605.35)" style="fill:#5bb8e8"/><path d="M2066,2420.51l8.47-3.21a7.15,7.15,0,0,0,2.64-1.72c1.35-1.84-.12-4.29-1.4-6.19-.14-.22-.64-1.14-.75-1.37-.42-.92-.5-1.26-.81-1.93a11.51,11.51,0,0,1-1.33-4.09c-.3-2.56-1.15-5-1.46-7.52a35.13,35.13,0,0,1-.35-7.38,34.11,34.11,0,0,1,2.3-10c1.17-2.66,2-5,3.74-7.31,1.62-2.14,6.37-8.31,8.34-10.12,8.17-7.48,13.77-11.12,24.18-14.9,8.22-3,18.28-2.44,27-2.78a48.11,48.11,0,0,1,10.53.4c3,.56,6,1.7,9.08,2.09s6.5-.1,8.68-2.31,2.32-6.46-.31-8.12a8.31,8.31,0,0,0-3.19-1l-10.22-1.69c-8.07-1.34-16.17-2.67-24.35-2.83a85.09,85.09,0,0,0-39.18,8.77,40,40,0,0,0-8.95,5.73,43.09,43.09,0,0,0-5.53,6.23,83.56,83.56,0,0,0-6,8.84,63.37,63.37,0,0,0-7.61,41.52c.82,5.06,2.69,10,4.07,14.93.49,1.74,1.26,3.13,1.75,4.88a3.57,3.57,0,0,0,.43,1C2065.83,2420.52,2065.88,2420.54,2066,2420.51Z" transform="translate(-1834.35 -1605.35)" style="fill:#5e7bbd"/><path d="M2008.13,2433.4a31.47,31.47,0,0,0,2.55,7.48,1.25,1.25,0,0,0,1.88.79c1.21-.42,2.07-.69,3-1a2.47,2.47,0,0,0,1.7-2.71,17.48,17.48,0,0,0-.4-2c-1-3.52-.82-5.58-1.36-8.42A81.34,81.34,0,0,1,2014,2417a223.79,223.79,0,0,1,.34-25.11c.68-12.11,2.82-24.46,9-34.92,1.6-2.74,3.41-5.34,5.24-7.93q4.18-5.94,8.48-11.82a82.06,82.06,0,0,1,22.69-21.09c12.69-8,26.35-15.42,40.59-20.17a94,94,0,0,0-27.73,4.48,37,37,0,0,0-6.3,3.07,182.57,182.57,0,0,0-23.09,14.09,58.41,58.41,0,0,0-5,4c-1.19,1.09-2.29,2.28-3.39,3.47l-8,8.62a52.5,52.5,0,0,0-8.2,11.73c-3.79,7.43-7.38,14.72-9.94,22.66a62.25,62.25,0,0,0-2.25,8.23,56.34,56.34,0,0,0-.69,6.47c-.61,9.18-2,9.37-1.22,18.53,0,.54.1,11.1.63,11A209.21,209.21,0,0,0,2008.13,2433.4Z" transform="translate(-1834.35 -1605.35)" style="fill:#fceef5"/><path d="M2080.39,2406.63c-3.52-7.92-4.67-16.7-2.16-25,3.53-11.55,13.39-20,23.78-26.21,7.56-4.48,15.84-8.13,24.6-8.82,14.43-1.14,28.29,4,42.76,3.73,3.21-.06,4.88-3.88,5.25-7.07,1.35-11.77-4.34-23.64-13.06-31.65s-20.15-12.57-31.73-15.07a106.39,106.39,0,0,0-61.09,4.79,99.83,99.83,0,0,0-47.3,38.76c-16,25.1-19.45,56.59-15.34,86.06.7,5,1.6,10.09,2.69,15.12l0,.24.05.21c7.07,32.15,22.09,63.52,44.21,87.37,29.1,31.38,74,45,116.66,48.14,15.82,1.16,31.85.62,47.34-2.81,31.49-7,59.08-25.35,85.83-43.38,7.48-5,15.08-9.84,23.37-13.41,5.4-2.34,10.88-4.7,16.69-5.66a36.38,36.38,0,0,1,11.78,0c2.37-1.73,5.26-4.69,5.82-7.57q1.18-6,2-12.1c.71-5.22,1.23-10.46,2.21-15.64,2.73-14.46,9-28.1,17.15-40.38.89-1.35,1.62-2.31,2.62-3.59,2.4-3,5.36-5.76,7.75-8.8a30.67,30.67,0,0,1,2.83-3.09c.86-.82,1.18-2,2.07-2.74" transform="translate(-1834.35 -1605.35)" style="fill:none;stroke:#231f20;stroke-miterlimit:10;stroke-width:3px"/></g></g><g id="Globe_with_face" data-name="Globe with face"><g id="Under-2" data-name="Under"><path d="M2208.55,1894.89c-7.88,4.48-1.52-9.42-10.43-7.73-7.81,1.47-13.34-3.64-21-5.77a4.7,4.7,0,0,1-3-1.91c-.68-1.26-.2-2.81.29-4.16a35.83,35.83,0,0,1,6.8-11.19c0-.05.48.64.52.6,1-1.11,2.23-2.23,3.31-3.26a122.32,122.32,0,0,1,20.92-16c12.41-7.53,27-11.83,41.44-11.1,13.2.67,25.93,5.43,37.42,12s21.88,14.8,32.19,23.06c3.87,3.11,7.75,6.22,11.32,9.66,7,6.7,12.7,14.55,18.39,22.36,6.36,8.72,13,18.12,13.49,28.91-1.5,2-2.92,4.37-4.32,6.48-2.09,3.17-4.56,6.08-6.9,9.07-1.46,1.86-2.87,3.76-4.28,5.67l-7.25,9.76-10.81,14.56a68.63,68.63,0,0,0-7.59,11.84c-7.43,16.12-17.58,30.62-24.13,47.12-1.75,4.4-3.5,8.81-5.21,13.23-2,5.27-4,10.61-4.84,16.2a81.39,81.39,0,0,0-.53,13.07c.32,24-5,47.6-5.39,71.56-.07,4,.23,7.79.37,11.82.28,8.52.57,17,1.41,25.52,1.34,13.5,4.08,26.81,6.82,40.09l2,9.55c1.71,8.27,1.45,16.94,4.27,24.9,1.28,3.64,3,7.13,4.3,10.75a92.34,92.34,0,0,1,3.86,15c.24,1.31,2.34,3.5,1.56,4.58-1.43,2-3.1,2.78-4.89,3.85s-3.78,2.09-5.59,3.09c-3.18,1.75-8,5.41-9.28,3.35-.93-1.51-2.61-2.69-3.62-4.14l-6.93-10c-5.52-7.93-11.06-15.91-15.23-24.63a64.55,64.55,0,0,1-6.54-27.94c.15-30.2.56-59.88-.27-90a147.43,147.43,0,0,1,1.19-21.92c.76-6.29,1.54-12.63,3.54-18.64,4.12-12.38,4.2-26.18,6.77-39,1.53-7.65,5.64-13.83,4.94-21.6-.3-3.38,4-5.27,3.14-8.56,1.62-1.33,1.88-3.56,2.51-5.55a175.56,175.56,0,0,0,5.43-21.93c1.52-8.39.17-17.19-1.11-25.62-1.45-9.46-3-19.2-8-27.37-2.75-4.51-6.44-8.35-10.17-12.08-4.15-4.13-8.55-8.27-14-10.31-5.06-1.89-9.5-5.76-14.1-8.59-2.78-1.71-5.62-3.48-7.67-6a20.79,20.79,0,0,1-3.32-6.32c-2.91-8.42-.86-5.36-7.18-11.64C2209.43,1896,2207.85,1899.1,2208.55,1894.89Z" transform="translate(-1834.35 -1605.35)" style="fill:#5bb8e8"/><path d="M2178.65,1882.55c.56-.48,1.07-2.28,1.55-2.84.12-.14.25-.26.38-.4a8.44,8.44,0,0,0,.54-.75c.29-.43.63-.84,1-1.24l1.66-2a11.06,11.06,0,0,1,2.44-2.39c1.19-.77,1.7-2.37,2.52-3.53a18.87,18.87,0,0,0,1.09-1.7,16.94,16.94,0,0,0,1-2.27,32.11,32.11,0,0,0,2-6.48,1.78,1.78,0,0,0-1.14.49,85.16,85.16,0,0,0-10.77,9.86,43.42,43.42,0,0,0-6.61,9.36c-.22.44-2.14,3.34-2.08,3.83s1.41.47,1.83.72,1.05.82,1.42,1C2176,1884.48,2178,1882.51,2178.65,1882.55Z" transform="translate(-1834.35 -1605.35)" style="fill:#f9e5ee"/><path d="M2290.92,1868.6c3.72,2.6,7.31,5.38,10.84,8.23,13.85,11.17,27.24,23.83,34.41,40.11a132.2,132.2,0,0,1,4.91,13.84l5.15,16.46c-5.94,6.43-9.56,14.69-14.13,22.16-12.11,19.78-30.56,36.41-36.19,58.9-4.06-19.59-12.1-38.1-20.09-56.45a109.16,109.16,0,0,0-7.64-15.3c-8.71-13.6-22.9-22.5-35.41-32.73-3.82-3.13-7.51-6.56-8.78-11.33a6.9,6.9,0,0,1-.18-3.6,7.39,7.39,0,0,1,1.2-2.27c4.4-6.31,10.5-11.19,15.91-16.66s10.35-12,11.41-19.6c.48-3.51-.16-7.61-3.11-9.58a8.94,8.94,0,0,0-4.17-1.31,17.15,17.15,0,0,0-7.28.9c-1.52.54-3.08,1.31-4.67,1a6.67,6.67,0,0,1-3.23-2,1.71,1.71,0,0,1-.61-.92,1.54,1.54,0,0,1,.34-1.06c1.51-2.28,4.3-3.28,6.91-4.08,4.66-1.41,9.47-2.6,14.33-2.39,6.81.29,13.17,3.3,19.28,6.32C2277,1860.61,2284.61,1864.2,2290.92,1868.6Z" transform="translate(-1834.35 -1605.35)" style="fill:#5e7bbd"/><path d="M2259.94,2251.24c.95,3.88,2.76,7.15,4.38,10.79,2.26,5,5.7,9.58,8.43,14.39,1.39,2.46,3,4.24,4.56,6.58s3.62,5.33,5.18,7.9c2,3.35,1,4.84.93,8.77-5.51-4.86-8-9.42-12.76-15a39,39,0,0,1-5.6-8c-1.18-2.43-1.91-5-2.92-7.53-2.06-5.07-5.27-9.61-7.45-14.64a55.55,55.55,0,0,1-4-18.74c-.13-2.08-.11-4.38,1.25-6,3.51-4.07,3.91,2.82,4.51,5.27C2257.67,2240.05,2258.69,2246.2,2259.94,2251.24Z" transform="translate(-1834.35 -1605.35)" style="fill:#fde6eb"/><path d="M2285.21,2303.73c-3.82-4.36-3.86-4.82-7-9.29-5.5-7.85-11-15.7-16-23.9-7.18-11.87-10.6-24.16-11.32-39.15-1.47-30.52,0-61.17.07-91.73,0-8.74,0-17.56,2-26.08,2.37-10.5,6.8-39.79,9.63-50.17,2.47-9.07,3.79-13.16,5.2-21.47s8.48-2.62,4.75-10.18" transform="translate(-1834.35 -1605.35)" style="fill:none;stroke:#231f20;stroke-miterlimit:10;stroke-width:3px"/><path d="M2170.24,1882.67a71.24,71.24,0,0,1,10.05-14.77c4.55-4.84,16.38-17.64,23.81-21.58,9.53-5,26.81-19.23,56.81-9.92,10.84,3.36,20.84,9,30.45,15,30.11,18.94,58.52,44.58,68.48,78.73" transform="translate(-1834.35 -1605.35)" style="fill:none;stroke:#231f20;stroke-miterlimit:10;stroke-width:3px"/></g><g id="Face"><g id="Head"><path d="M2323.43,2330.42c-14.19-26-27.15-53.16-32.58-82.24-4.54-24.37-9.14-48-10.8-72.71-1.94-28.78-3.61-57,2-85.27,2.56-12.87,4.4-25.89,7.06-38.74.67-3.24,2.34-5.47,3.33-8.64.92-3,3.17-6.21,4.36-9.07,4.9-11.72,9.82-23.46,16.05-34.52,7-12.39,13.6-22.48,21.43-34.35,2.46-3.72,5.53-7.36,8.11-11,9.86-13.9,20-26.87,33.06-37.85,23.64-19.91,45.2-37.68,73.68-49.68,5.84-2.47,12.63-7.59,18.59-9.74,8.15-2.93,14.33-5.77,22.52-8.58,33.84-11.63,70.13-19,105.85-16.89,15.19.9,30.23,1.13,45.39,2.41a189.89,189.89,0,0,1,31.66,5.54c10.31,2.6,19.94,5.24,29.73,9.4,26.92,11.44,54.44,22.35,76.74,41.29,11.34,9.63,24.12,17.15,34.94,27.36s20.13,21.92,29.33,33.63c15.59,19.81,31.23,40.15,40.14,63.74,1.22,3.22,4.28,5.38,5.49,8.61,12,32.06,25.45,64.83,25.64,99.07a563.14,563.14,0,0,1-7,93.36c-.68,4.12-2.25,9-3.28,13.09a135.45,135.45,0,0,1-6.27,19.63c-5.05,12-8.64,24.32-12.67,36.7-2,6.13-4.32,11.65-4.67,18.1-.18,3.1-3,6.5-1.83,9.38,1.41,3.45,4.12,6.22,7,8.61a116,116,0,0,0,12.62,8.78l25,15.85a19.72,19.72,0,0,1,7.8,10c1.57,4.14,2.06,8.61,2.51,13,2.29,22.34,3.69,46.28-7.3,65.87-6.66,11.87-17.28,21-28.11,29.19-4.75,3.61-8.7,9-13.9,11.92-5.68,3.19-11.89,5-18,7.21-12.63,4.61-26.34,7.13-39.5,9.95-6,1.27-11.87,3.2-17.78,4.67a142.35,142.35,0,0,0-52.95-56.63,128.9,128.9,0,0,0-75.18-18c-17.86,1.39-36.09,4-52.85,10.34-12.59,4.79-24.22,11.81-36.62,17.07s-26.16,8.75-39.34,6c-4.94-1.05-9.64-3-14.42-4.57-12.58-4.24-26.09-6.37-39.14-7.8-4.91-.54-9.84-2.31-14.67-3.36-10.43-2.25-21.13-3.09-31.58-5.26-7.06-1.47-14-3.53-20.87-5.59-5.61-1.67-11.25-3.36-16.45-6a47.44,47.44,0,0,1-15-12.13c-2.12-2.59-4.16-5.33-6.45-7.77-14-14.88-26.52-31-40.56-45.86a44,44,0,0,0-8-7.11C2337.14,2345.32,2328.32,2339.38,2323.43,2330.42Z" transform="translate(-1834.35 -1605.35)" style="fill:#5bb8e8"/><path d="M2803.09,2420c3.22,2.65,6.82,4.8,10,7.46a80.83,80.83,0,0,1,9.25,9.61,172.14,172.14,0,0,1,13.28,16.75c2,3,3.85,6.17,5.67,9.31l8.07,13.9c1.82,3.14,3.64,7.16,1.61,10.17a8.76,8.76,0,0,1-3.15,2.56,47.87,47.87,0,0,1-19.24,6,3.08,3.08,0,0,1-1.73-.2,3.23,3.23,0,0,1-1.25-2.25,151.92,151.92,0,0,0-11.07-30c-2.85-6-5.93-11.86-9.34-17.55a172.11,172.11,0,0,0-17.78-24.48c-6.82-7.84-18.17-14.56-25.36-21.89,7.52-1.45,14.48,1.13,19.69,4.51A227.6,227.6,0,0,1,2803.09,2420Z" transform="translate(-1834.35 -1605.35)" style="fill:#5e7bbd"/><path d="M2565.65,2439a63.8,63.8,0,0,1,.55,7c0,3.28-1.83,9.26-.49,12.25.48,1.06,2.29.28,3.57.13,2.52-.3,4.92.83,7.38.23l8.21-2a60.84,60.84,0,0,0,8.49-2.51c7-2.86,12.83-8.32,19.93-11.05,1.66-.63,3.36-1.11,5-1.67s3.14-1.14,4.69-1.74l5.72-2.23c1.73-.67,3.58-1.45,4.51-3.06s.68-3.42.46-5.16a2.61,2.61,0,0,0-.49-1.43,2.37,2.37,0,0,0-1.23-.59,37.83,37.83,0,0,0-9.81-.57c-8.47.21-16.94.07-25.41-.32-5-.23-9.91-.55-14.87-.87l-8.48-.54c-2.22-.15-6.18-1.21-8.27-.54s-.7,4.17-.48,6.07Z" transform="translate(-1834.35 -1605.35)" style="fill:#5e7bbd"/><path d="M2840.74,1964.66c11.66,30.48,22.76,61.57,26.35,94,2.44,22.15,1.34,44.52.22,66.77-.34,6.84-.09,14.11-.77,20.93-4.37,43.7-17.38,86.23-35,126.47a234.8,234.8,0,0,1-13.86,27.65q-8.86,14.67-17.74,29.34c14.79,9.33,29.63,17.86,45,26.24a91.61,91.61,0,0,0,10.09,5,90.29,90.29,0,0,0,14.87,4c5.69,1.17,11.69,2.32,17.19.46a33.27,33.27,0,0,0,8.54-5,136.05,136.05,0,0,0,15-12.12c-.4-1.89-2.56-2.59-4.4-3.2-5.66-1.87-11.64-2.77-17.12-5.11-11.12-4.75-19.31-15.48-21.6-27.35s4.71-30.59,9.71-40.73a125.3,125.3,0,0,0,10-27.16q6.47-25.59,10.62-51.67a435.29,435.29,0,0,0,5.22-68.7,121,121,0,0,0-2.18-22.3,337.94,337.94,0,0,0-12.11-45.78c-6.92-20.27-14.44-40.49-25.27-59C2856.83,1985.87,2850.7,1972.49,2840.74,1964.66Z" transform="translate(-1834.35 -1605.35)" style="fill:#5e7bbd"/><path d="M2553.28,1837.27c-1,.31-4.61,1.76-5.28,1.91-42.54,9.71-77,26.06-114.38,49.62-10.35,6.52-22.38,17.67-29.89,27.33,8.59-4.44,12.89,8.74,10.71,16a57.88,57.88,0,0,1-9.27,18.19c-11.5,15.33-24.59,29.72-40.47,40.46-6.48,4.38-29.91.1-24.78-5.8,3-3.41-1.63-1.33-4,.89-1.74,1.64-3.89,3.37-5.2,5.38a20.41,20.41,0,0,0-2.59,5.59c-.15.51-1.65,4.62-1.5,5.08s1.08-2.56,2.85-1.3a28.65,28.65,0,0,1,5.38,4.53c4.21,4.91,1.67,12.43-1.22,18.21-3.75,7.52-8,15.15-17.09,18.1-2.31.75-5,.3-7.38-.32-.9-.24-.19-1.3-.44-1.13s.1.11-.41,1c-.75,1.3-1.82,2.82-2.14,3.64-4.19,10.68-5.53,21.88-8.34,33-1.87,7.37-3.85,14.5-4.58,22.22a470.78,470.78,0,0,0,5.24,127.76c.74,4.06,2.26,10.64,3.39,14.61l7.66,33.88c1.53,5.42,3.85,11.46,5.85,16.72,2.79,7.37,8.42,18.47,11.34,25.78l8,18.47c.45.85,0,1.14-.8,1.71-2,1.44-2.8,1.85-3.39,1.41-2.11-2.54-2.1-2.08-4.14-4.63-.06-.06-.48-1.09-.53-1.16-2.51-3.1-3.11-6-4.86-9.53-1.36-2.79-2.14-5.83-3.46-8.64-1.11-2.38-2.59-4.57-3.91-6.84a120.59,120.59,0,0,1-6.06-12.41l-5.19-11.74a104,104,0,0,1-5.09-13.12c-.42-1.47-.63-2.94-1.11-4.4a264.92,264.92,0,0,1-10.31-42.48c-2.7-17.17-4-34.7-6.07-52-.31-2.63.18-5.11-.11-7.75a289,289,0,0,1-.85-52.45c.71-9.55,2.39-18.82,3.39-28.37a156.79,156.79,0,0,1,10.25-41.89c1.08-2.71,2.08-5.42,3.18-8.22,6.93-17.71,14-35.64,25.13-51,13.13-18.15,26-36.39,40.64-53.35,4.75-5.51,9.54-11,14.7-16.12a155,155,0,0,1,22.2-18.3c48.63-33,103.71-57.45,162-64.65-1,1.48-.8,2.9-2.25,3.92C2558.05,1835,2554.07,1837,2553.28,1837.27Z" transform="translate(-1834.35 -1605.35)" style="fill:#fde6eb"/></g><g id="Face-2" data-name="Face"><g id="Eyes"><g id="Left"><path d="M2378.64,2212.23c-1.42,8.73-.84,17.64-.24,26.46a60.78,60.78,0,0,0,1.44,11.18,55.7,55.7,0,0,0,5.56,12.78c3.61,6.59,7.51,13.12,12.73,18.53s11.89,9.69,19.32,10.82c7.72,1.19,15.7-1.11,22.35-5.2s12.12-9.85,16.95-16c5.29-6.71,10-14.19,11.55-22.6a62.17,62.17,0,0,0,.41-14.37A163.49,163.49,0,0,0,2467,2216c-2.58-15.85-10.12-32.05-24.27-39.63-11.19-6-31.14-9.2-41.74-1.12A59.08,59.08,0,0,0,2378.64,2212.23Z" transform="translate(-1834.35 -1605.35)" style="fill:#1d1544"/><path d="M2392.65,2215c-1,6.84,1.82,17,7.37,21.08,4.67,3.46,11.67,4.45,16.17.78,3.47-2.82,4.66-7.57,5.18-12,.61-5.2.52-10.75-2.06-15.3-3.23-5.71-9.43-7.78-15.49-6.35A15,15,0,0,0,2392.65,2215Z" transform="translate(-1834.35 -1605.35)" style="fill:#fafbf4"/></g><g id="Right"><path d="M2672.88,2182.76a46.41,46.41,0,0,0-8.36,9.73,44.61,44.61,0,0,0-4.31,10.67c-3.38,11.74-4.92,24.13-3.31,36.24s6.5,23.94,14.79,32.91a101,101,0,0,0,11.31,10.05c3.27,2.64,6.65,5.33,10.67,6.57a33.3,33.3,0,0,0,8.57,1.1l12.35.49a42.88,42.88,0,0,0,9.94-.36c7.72-1.48,14-6.95,19.6-12.45,7.18-7.05,14.19-14.89,16.86-24.58,1.64-6,1.53-12.25,1.28-18.42-.5-12.39-1.6-25.13-7.22-36.18-3.88-7.64-8.13-14.67-13.91-21-2.71-3-5.91-6.51-9.56-8.2a38.23,38.23,0,0,0-11.79-3.51C2700.89,2163.48,2686.68,2169.86,2672.88,2182.76Z" transform="translate(-1834.35 -1605.35)" style="fill:#1e174a"/><path d="M2679.64,2201.8a14.92,14.92,0,0,0-3.41,4.41c-1.44,2.49-1.74,5.45-2,8.31a19.44,19.44,0,0,0,.94,8.36,13.59,13.59,0,0,0,2.22,4.59,17.43,17.43,0,0,0,7.66,5.33,11.27,11.27,0,0,0,9.13-.82,20.48,20.48,0,0,0,4.74-3.62,17.75,17.75,0,0,0,3.2-5.65,16.48,16.48,0,0,0,.79-5.14c.15-3.76.1-7.64-1.37-11.09a13.67,13.67,0,0,0-9.49-8.07C2687.17,2197.45,2683.32,2199,2679.64,2201.8Z" transform="translate(-1834.35 -1605.35)" style="fill:#fafbf4"/></g></g><g id="Blush"><path d="M2341,2288.15a27.72,27.72,0,0,1,6.77-1.91,37.45,37.45,0,0,1,10.13-.55,26.45,26.45,0,0,1,10.42,3.33,12.61,12.61,0,0,1,5.1,4.71,4.35,4.35,0,0,1,.55,1.6,4.9,4.9,0,0,1-1.71,3.84,15.9,15.9,0,0,1-6.62,3.68,40,40,0,0,1-6.22,1.33,34.43,34.43,0,0,1-13.46-.25c-4.38-1.12-8.52-3.72-10.73-7.66a4.35,4.35,0,0,1-.47-1.95,2.49,2.49,0,0,1,.63-1.88,10.44,10.44,0,0,1,1.57-1.62A14.41,14.41,0,0,1,2341,2288.15Z" transform="translate(-1834.35 -1605.35)" style="fill:#83ceec"/><path d="M2777.19,2284.72a30.8,30.8,0,0,1,6.09-1.19,38.25,38.25,0,0,1,11.77,1.45,23.65,23.65,0,0,1,8.23,3.19,25.24,25.24,0,0,1,3,2.65,6,6,0,0,1,1.25,1.55,3.67,3.67,0,0,1,0,2.94,7.72,7.72,0,0,1-1.72,2.45,21.16,21.16,0,0,1-9,5.26,38.12,38.12,0,0,1-10.36,1.51c-6.86.16-14.11-1-19.51-5.2a11.13,11.13,0,0,1-3.18-3.68,3.54,3.54,0,0,1-.52-2,3,3,0,0,1,.94-1.36,24.18,24.18,0,0,1,7.81-5.7A37.76,37.76,0,0,1,2777.19,2284.72Z" transform="translate(-1834.35 -1605.35)" style="fill:#83ceec"/></g><path id="Mouth" d="M2549.7,2303.26a11.46,11.46,0,0,0,4.17,2.67,11.17,11.17,0,0,0,5.36.26,16.5,16.5,0,0,0,4.84-1.3c3.7-2,5.54-6.13,9.12-8.33a2.65,2.65,0,0,1,1.74-.31,2.35,2.35,0,0,1,1.48,2.12,13.19,13.19,0,0,1-4.81,11.09,18.5,18.5,0,0,1-4,2.48,24,24,0,0,1-11.12,2,17.06,17.06,0,0,1-4.4-.62,19.78,19.78,0,0,1-5.83-2.58,21.77,21.77,0,0,1-4.85-5.52,13.36,13.36,0,0,1-2.1-7.14,4.15,4.15,0,0,1,.82-2.94c1.45-1.62,3.45-.67,4.59.73a8.24,8.24,0,0,1,1,1.9,19.11,19.11,0,0,0,1.6,2.73A18.08,18.08,0,0,0,2549.7,2303.26Z" transform="translate(-1834.35 -1605.35)" style="fill:#1d1544"/></g><path id="Contour" d="M2403.36,2413.57c3.21,3.69,6.46,7.42,10.45,10.24a51.67,51.67,0,0,0,11.86,5.83c39.22,14.63,82.71,13.72,122.53,26.64,5.9,1.91,11.75,3.56,17.94,3.23,10.79.76,21.21-3.58,31.16-7.83,14.19-6.06,28.45-12.89,43-18.17,20.82-7.58,43.77-9.72,65.85-7.86s43.84,9.49,61.38,23c3.78,2.91,7.35,6.09,10.92,9.26,6.23,5.52,12.47,11.07,17.87,17.41,6.53,7.67,12.48,15.36,16.1,24.75l24.66-7c21.21-6,42.72-12.15,61.56-23.61s35-29.09,39.69-50.63a97.82,97.82,0,0,0,1.81-20.58,257.79,257.79,0,0,0-2.26-33.89,22,22,0,0,0-4.82-10.65,62.81,62.81,0,0,0-8.54-8.64c-1.66-1.48-3.74-1.75-5.57-3-8.53-5.91-18.71-9.44-26.34-16.48a73.66,73.66,0,0,1-6.55-7.23,14.56,14.56,0,0,1-3.15-5.09,13.58,13.58,0,0,1-.23-4.59,103.77,103.77,0,0,1,2-14,206.7,206.7,0,0,1,6.78-23.08c1.92-5.71,4.06-11.39,5.44-17.25.49-2.06.95-5.45,1.82-7.39.65-1.44,1.21-3.44,1.9-4.86,1.77-3.67,1.77-3.67,2.68-5.89a53.93,53.93,0,0,0,1.72-6.7c7.43-28,9.41-55.12,10.44-83.92,1-26.93-2.15-54.73-10-80.52-21.64-71.31-66.08-132.48-127.85-176.63-16.85-12-34.45-23-53.4-31.26-23.23-10.19-47.38-18.74-72.47-22.4-15.58-2.27-31.36-2.64-47.1-3-11.3-.26-22.69-1.29-34-.39-77.63,6.21-153,40.14-207,96.26-7.81,8.12-14.54,17.19-21.24,26.24-15.24,20.57-30.63,41.37-40.71,64.9-2.46,5.74-4.6,11.62-6.73,17.49-1.73,4.76-3.69,9.57-5.51,14.3-3,7.75-4.38,16-5.48,24.27-5.2,38.89-8,78.45-2.66,117.33q3.21,23.57,7.71,46.94c1.06,5.54,2.18,11.07,3.5,16.56,6.59,27.31,16.07,49.95,31.32,73.56a4.11,4.11,0,0,1,.4,1.45,5.07,5.07,0,0,0,.15.64c.05.2.6,1.64.42,1.73-1,.5-1.42.66-2.42,1.24" transform="translate(-1834.35 -1605.35)" style="fill:none;stroke:#231f20;stroke-miterlimit:10;stroke-width:3px"/></g><g id="Globe"><path d="M2480.89,1716.65l-346,106.53a27.27,27.27,0,0,1,2,5.25l344.34-106A25.45,25.45,0,0,1,2480.89,1716.65Z" transform="translate(-1834.35 -1605.35)" style="fill:#eeae5a"/><path d="M2208.7,1847c21.48,4.63,39.07,23.6,61,23.25,16.49-.27,31.58-11.65,48-10.53,19.21,1.32,34.23,19.24,53.44,20.59,10.45.73,21.14-3.6,31.24-.84a23.79,23.79,0,0,1,13.52,10.13c1.24-1,2.49-2,3.71-3.08a159,159,0,0,0,41.72-57.32c-7.23-4.16-14.63-8-22.59-10.38-12.13-3.67-25.94-3.8-36.82,2.68-11.65,6.93-21.34,21.35-34.63,18.69-12.64-2.53-17.45-19.09-29.25-24.27-12.34-5.42-25.83,3.6-36.62,11.68s-25.64,15.82-36.86,8.35c-6.91-4.6-9.56-14.17-7.16-22.12s9.12-14.15,16.84-17.21c7.05-2.79,15.16-3.37,21.14-8.05,6.41-5,8.76-13.47,11.88-21s8.58-15.43,16.7-16.11c10.61-.88,18.53,11,29.15,11.75,9.17.68,16.58-6.93,22.81-13.71a389,389,0,0,1,76.26-64,161,161,0,0,0-17.41-24.17c-.92-1-1.88-2-2.82-3.06a150.66,150.66,0,0,1-6.39,15.41c-11.72,24-31.79,45.23-57.55,52.43a24.51,24.51,0,0,0-36.3-24.55c-11.48,6.45-15.83,20.61-24.51,30.5s-23.25,15.35-35.53,10.61-19.34-21.29-12-32.23c5.18-7.75,15.07-10.61,22.38-16.4,11.4-9,15.65-24.94,13.84-39.37s-8.81-27.68-16.55-40c-.71-1.13-1.44-2.29-2.11-3.48a158.53,158.53,0,0,0-44.13,18c5.46,5.33,8.54,13,6.36,20.2-2.91,9.61-13.23,15.15-17.55,24.22-10.5,22.07,19.38,47.12,11.35,70.2-1.28,3.67-3.53,7.24-3.17,11.11.32,3.47,2.67,6.39,3.7,9.72,2.28,7.37-2.54,15.44-9.14,19.42s-14.57,4.84-22.25,5.61l-45,4.5A158.55,158.55,0,0,0,2179,1850.4,48.57,48.57,0,0,1,2208.7,1847Z" transform="translate(-1834.35 -1605.35)" style="fill:#4772b8"/><path d="M2295.93,1654.65c1.81,14.43-2.44,30.34-13.84,39.37-7.31,5.79-17.2,8.65-22.38,16.4-7.31,10.94-.24,27.49,12,32.23s26.85-.71,35.53-10.61,13-24,24.51-30.5a24.51,24.51,0,0,1,36.3,24.55c25.76-7.2,45.83-28.39,57.55-52.43a150.66,150.66,0,0,0,6.39-15.41,159.53,159.53,0,0,0-154.75-47.07c.67,1.19,1.4,2.35,2.11,3.48C2287.12,1627,2294.11,1640.22,2295.93,1654.65Z" transform="translate(-1834.35 -1605.35)" style="fill:#37b14a"/><path d="M2376,1749.51c-6.23,6.78-13.64,14.39-22.81,13.71-10.62-.78-18.54-12.63-29.15-11.75-8.12.68-13.58,8.58-16.7,16.11s-5.47,16-11.88,21c-6,4.68-14.09,5.26-21.14,8.05-7.72,3.06-14.45,9.25-16.84,17.21s.25,17.52,7.16,22.12c11.22,7.47,26.07-.28,36.86-8.35s24.28-17.1,36.62-11.68c11.8,5.18,16.61,21.74,29.25,24.27,13.29,2.66,23-11.76,34.63-18.69,10.88-6.48,24.69-6.35,36.82-2.68,8,2.4,15.36,6.22,22.59,10.38a159.85,159.85,0,0,0-9.15-143.73A389,389,0,0,0,2376,1749.51Z" transform="translate(-1834.35 -1605.35)" style="fill:#37b14a"/><path d="M2224.69,1784c6.6-4,11.42-12,9.14-19.42-1-3.33-3.38-6.25-3.7-9.72-.36-3.87,1.89-7.44,3.17-11.11,8-23.08-21.85-48.13-11.35-70.2,4.32-9.07,14.64-14.61,17.55-24.22,2.18-7.23-.9-14.87-6.36-20.2a159.48,159.48,0,0,0-75.69,165l45-4.5C2210.12,1788.84,2218.08,1788,2224.69,1784Z" transform="translate(-1834.35 -1605.35)" style="fill:#37b14a"/><path d="M2416,1889.61a23.79,23.79,0,0,0-13.52-10.13c-10.1-2.76-20.79,1.57-31.24.84-19.21-1.35-34.23-19.27-53.44-20.59-16.45-1.12-31.54,10.26-48,10.53-22,.35-39.56-18.62-61-23.25a48.57,48.57,0,0,0-29.72,3.39,159.49,159.49,0,0,0,237,39.21Z" transform="translate(-1834.35 -1605.35)" style="fill:#37b14a"/><path d="M2082.12,1914.52c-7.46,14.1,43.84,55.89,114.6,93.33s134.17,56.37,141.63,42.26-43.84-55.89-114.6-93.34S2089.58,1900.41,2082.12,1914.52Z" transform="translate(-1834.35 -1605.35)" style="fill:#c18740"/><path d="M2213.7,1947.78c-62.58-31.63-116.58-46.9-123.28-34.24-3,5.67,4,16,18.08,28.77C2151.79,1957.29,2191,1959.36,2213.7,1947.78Z" transform="translate(-1834.35 -1605.35)" style="fill:#eeae5a"/><path d="M2282.17,1987.67a619.84,619.84,0,0,0-56.84-33.88q-5.85-3.09-11.63-6c-22.7,11.58-61.91,9.51-105.2-5.47,16.43,14.87,42.56,33,74,50.77C2222.28,2003.61,2258.81,2001.71,2282.17,1987.67Z" transform="translate(-1834.35 -1605.35)" style="fill:#dd9c4e"/><path d="M2282.17,1987.67c-23.36,14-59.89,15.94-99.69,5.41q8.33,4.71,17.1,9.37c67.4,35.66,127.8,53.69,134.91,40.25C2339.37,2033.48,2317.89,2011.85,2282.17,1987.67Z" transform="translate(-1834.35 -1605.35)" style="fill:#c18740"/><path d="M2484.26,1714.79l-9.73,3A166.82,166.82,0,1,1,2155.66,1816l-9.74,3a177,177,0,1,0,338.34-104.17Z" transform="translate(-1834.35 -1605.35)" style="fill:#c18740"/><path d="M2155.66,1816l-8.88,2.73a176.56,176.56,0,1,0,337.48-103.9l-9.09,2.8a168.49,168.49,0,0,1,4.74,23.49A166.82,166.82,0,0,1,2155.66,1816Z" transform="translate(-1834.35 -1605.35)" style="fill:#eeae5a"/><polygon points="295.1 214.49 299.31 229.85 325.52 221.43 321.1 205.35 295.1 214.49" style="fill:#eeae5a"/><polygon points="321.1 205.35 295.1 214.49 296.51 219.66 322.68 211.12 321.1 205.35" style="fill:#eeae5a"/><polygon points="322.68 211.12 296.51 219.66 298.35 226.36 324.18 216.53 322.68 211.12" style="fill:#dd9c4e"/><polygon points="325.52 221.43 324.18 216.53 298.35 226.36 299.31 229.85 325.52 221.43" style="fill:#c18740"/><polygon points="663.46 98.59 637.47 107.73 638.88 112.89 665.05 104.35 663.46 98.59" style="fill:#eeae5a"/><polygon points="665.05 104.35 638.88 112.89 640.72 119.6 666.54 109.77 665.05 104.35" style="fill:#dd9c4e"/><polygon points="667.89 114.66 666.54 109.77 640.72 119.6 641.68 123.09 667.89 114.66" style="fill:#c18740"/><rect x="2220.52" y="1911" width="21.81" height="44.23" transform="translate(-2355.26 1395.85) rotate(-62.11)" style="fill:#c18740"/><rect x="2206.18" y="1919.63" width="21.81" height="11.78" transform="translate(-2356.18 1379.14) rotate(-62.11)" style="fill:#eeae5a"/><rect x="2219.17" y="1923.6" width="21.81" height="17.6" transform="translate(-2355.34 1394.28) rotate(-62.11)" style="fill:#dd9c4e"/><rect x="2202.76" y="1922.89" width="35.5" height="70.54" transform="translate(-2383.21 1399.53) rotate(-62.11)" style="fill:#c18740"/><rect x="2180.37" y="1936.37" width="35.5" height="19.88" transform="translate(-2384.65 1373.44) rotate(-62.11)" style="fill:#eeae5a"/><rect x="2198.95" y="1945.07" width="35.5" height="22.16" transform="translate(-2383.45 1395.1) rotate(-62.11)" style="fill:#dd9c4e"/><g style="opacity:0.5"><rect x="2224.68" y="1909.69" width="5.63" height="70.54" transform="translate(-2367.82 1398.68) rotate(-62.11)" style="fill:#c18740"/></g><path d="M2299.84,1607.45s-21,1.07-38.32,8.38c0,0-29.15,11.57-42.5,22.73,0,0-15.7,11.75-24.34,22.47s-19.07,24.34-24.48,37.31-13.64,31.8-14.37,52.15-1,31.37,1.62,43.62,6.81,32.29,21.53,56.29a155.91,155.91,0,0,0,33.12,38.28s18,14.92,31.8,20.85,34.84,14.68,54.06,15.53,27.36,2.35,44.05-1.48,29.67-6.3,44.18-14.57,28.48-15.63,40.74-29.22,21.73-23.62,29.87-40.76a210.11,210.11,0,0,0,11.9-30.86s2-7.81,2.71-11.76,2-13.66,2-13.66,2-22-.37-36-4.17-22.43-6.13-28.26-7.23-21.48-14.66-33-13.59-21.65-24.42-31.62-20.25-18.49-31.28-24.51-24.56-13.29-38.34-16.54-15.75-3.84-21.83-4.55S2312.44,1606,2299.84,1607.45Z" transform="translate(-1834.35 -1605.35)" style="fill:none;stroke:#231f20;stroke-miterlimit:10;stroke-width:3px"/><path d="M2162.55,1814.63l-5.52,1.84-1.59-5.76-26,9.14,4.21,15.36,16.08-5.17s4.76,12.46,9.37,20.55,12.26,19.68,12.26,19.68,8.79,12.09,15.79,19,14.11,13.21,14.11,13.21,9.65,7.59,12.13,9.3,3.16,2.15,3.16,2.15l-9.12,17.23-9.8-5.18-5.93,11.19s-12.09-5.46-17.35-7.64-19.68-8.26-31.2-11.79-18-5.26-18-5.26-9.86-2.42-14.83-2.87-7.61-.74-10.2-.43-4.24.67-4.24.67a18.78,18.78,0,0,0-5,.22c-2.74.5-5.22,1.06-6.4,2a7.33,7.33,0,0,0-2.34,2.46,6.63,6.63,0,0,0-.47,5.24,25.48,25.48,0,0,0,5,9.62,124.15,124.15,0,0,0,13.21,14.22s8.3,7.67,16.84,14.05,14.93,11.1,22.48,16.07,12.49,8.23,19,12.19,16.07,9.85,28.23,16.39,25.24,13.5,36.6,18.8,17.83,8.44,28.23,12.65,20.62,8.18,26,10,16.48,5.74,25.41,7.65c0,0,8.15,1.81,10.22,2.14s7.92,1.1,9.93,1.16,6-.06,6.43-.11a34.73,34.73,0,0,0,4.66-1,12,12,0,0,0,2.55-1.32,23.11,23.11,0,0,0,1.92-2.17,4.2,4.2,0,0,0,.72-3.09c-.21-2-.27-2.25-.27-2.25s-.63-2-.77-2.4-.8-1.79-1.19-2.49-2.36-3.75-2.36-3.75a40.48,40.48,0,0,0-1.91-4,52.84,52.84,0,0,0-5.13-7,105.09,105.09,0,0,0-8.64-9c-3.82-3.48-5.52-5-7.7-6.83,0,0-3.17-2.82-8.52-6.88s-9.75-7.72-20.41-14.73-13.7-9.09-20.73-13.33l-7.27-4.39,5.81-11-13.45-7.12,9.54-18s13.24,4.58,22.34,6.26,25.28,4.2,36.56,3.84,17.28-.74,21.72-1.35,12.38-1.88,16.32-2.8a159.24,159.24,0,0,0,17.11-4.66c6.66-2.33,9-2.84,16.14-6.16s9.07-4,14.94-7.4,12-7.19,15.74-9.86,9.28-6.73,13.76-10.71,8.6-7.71,12.21-11.59,8.38-9.15,11.6-13.41,8.85-12.14,11.43-16.48,6.69-11.5,9.11-16.82,3.66-8,5.23-12.17,4.16-11.57,5.39-16.23,2.61-9.8,3.53-15.21,1.18-5.27,1.83-12.34,1.16-15,1.1-19.49,0-7.6-.42-12.43c0,0-1-10.15-1.52-13.61s-2.08-11.84-2.61-14.07l-.53-2.23,15.19-4.88-4.43-16.08-26,9.14,1.58,5.88-5.6,1.73" transform="translate(-1834.35 -1605.35)" style="fill:none;stroke:#231f20;stroke-miterlimit:10;stroke-width:3px"/><path d="M2477.33,1728" transform="translate(-1834.35 -1605.35)" style="fill:none;stroke:#231f20;stroke-miterlimit:10;stroke-width:3px"/><path d="M2469.11,1726.13l5.85-1.56,1.06,3.87,1.31-.42.49,2.11c.56,2.57,1.37,5.83,1.93,9.76,0,0,1.13,7.47,1.47,11.62s.37,4,.49,6.74.24,6.57.23,8.57-.1,6.61-.2,8.46-.45,6.82-.73,9.28-.55,4.79-.85,6.74-1,6-1.35,7.82-1.28,6-1.83,8.15-2,7.37-2.45,8.78-2.22,6.75-3,8.8-1.88,4.93-3,7.43-2.06,4.74-3.28,7.2-2.87,5.75-4.16,8-1.58,3-3.37,5.83-2.4,3.89-3.32,5.28-2.4,3.58-3.37,4.93-1.87,2.64-3.3,4.5-3.49,4.52-5.45,6.78-4.93,5.7-7.63,8.41-4.19,4.25-6.71,6.52-3.1,2.87-5.73,5-1.92,1.66-4.38,3.54-2,1.62-4.52,3.4-3.4,2.5-6.27,4.35-3.57,2.4-7,4.34c0,0-3.23,1.92-5.83,3.29s-5.68,3-8.07,4.07-6.12,2.87-10.47,4.5-7.24,2.72-10.83,3.8-9.6,2.83-14.44,3.82-5.92,1.21-8.21,1.57-5.72.87-7.43,1.06-7.26.77-10.27.92-7.93.37-12.14.26a139.82,139.82,0,0,1-14.58-.87c-6-.72-6.64-.76-9.6-1.28s-6.9-1.21-10.17-2-4.19-1-7-1.77-7.07-2.1-8.52-2.59-3.84-1.29-6-2.12-3.21-1.19-6-2.39-2.8-1.1-6.57-2.93-10.06-5-14.29-7.61-5-3-8.34-5.3-7.39-5.07-11.6-8.61-6.91-5.81-9.68-8.51-7.75-7.62-11.18-11.73-2.67-3.08-4.52-5.46-3.11-3.94-5-6.67-4-5.74-5.91-8.87-4.27-7.07-6.17-10.82-2.14-4.09-3.51-7.14-1.79-3.93-2.55-5.8-1.13-2.76-1.37-3.36l-.38-1,.42-.14-1.35-4.9,5.79-1.87" transform="translate(-1834.35 -1605.35)" style="fill:none;stroke:#231f20;stroke-miterlimit:10;stroke-width:3px"/></g><g id="Over-2" data-name="Over"><path d="M2176,1882.82c-2.88.16-2.68-.72-5.36.36l.25.87c-1.54,3.38-3.52,6.9-5.06,10.28a39.79,39.79,0,0,0-3.17,8.72,30.61,30.61,0,0,0-.47,5.33,69.07,69.07,0,0,0,3.11,21.55c1.53,4.93,2.34,10.08,4.39,14.83,1.11,2.55,2.21,5.1,3.47,7.59,6.43,12.75,16.55,23.3,23.61,35.73,2.64,4.67,6.11,8.81,9,13.31a57.68,57.68,0,0,1,5,9c1.39,3.32,2.21,6.86,3.59,10.18,3.27,7.87,9.48,14.18,16.3,19.29a42.48,42.48,0,0,0,11.16,6.35,20.82,20.82,0,0,0,12.67.68,26.24,26.24,0,0,0,8.72-4.94,43.6,43.6,0,0,0,12.2-14.31,55.17,55.17,0,0,0,3.65-10.11c1.36-4.93,1.59-9.88,1.73-15a78.07,78.07,0,0,0-3.72-24.56l-3.09-10.24c-2.73-9.06-8.68-15.93-14.81-23.13-3.69-4.33-7.31-8.07-12.46-10.49a133.37,133.37,0,0,1-13.51-7.32l-17.46-11.5-12.09-9.85-21.3-19-3.57-4.16-.55.87Z" transform="translate(-1834.35 -1605.35)" style="fill:#5bb8e8"/><path d="M2208.55,1893.79" transform="translate(-1834.35 -1605.35)" style="fill:#ef4b80"/><path d="M2199.41,1907a35.19,35.19,0,0,0,1.08,11.75c1.85,6.33,6.1,11.64,10.32,16.71q7.89,9.48,16.08,18.69a54.94,54.94,0,0,1,10.86,19.47c.67,2,1.33,3.92,1.94,5.9a104.13,104.13,0,0,1,4.53,29.54c.1,12.4,1.09,24.83-.85,37.07,4.25,1.57,9.16.5,12.94-2s6.53-6.29,8.68-10.28c4.86-9,6.92-19.38,7-29.64s-1.69-20.44-4.14-30.39c-1-3.85-3.36-7.1-5.32-10.54-4.51-7.91-9.86-15.61-17.35-20.77-6.43-4.44-14.11-6.79-20.63-11.09-4-2.64-8-5.44-10.93-9.25-2.29-3-3.67-7.54-4.35-10.68" transform="translate(-1834.35 -1605.35)" style="fill:#5e7bbd"/><path d="M2173.7,1882.64c-.53-.2-.66-.85-1.21-.71-.68.46-.63,0-1.36,1.07-.89,1.39-1.78,2.77-2.6,4.2-4.5,7.83-6.09,16.9-6.19,25.93-.15,14.8,4.51,29.28,11.92,42.1l4.9,8.48c.63,1.08,1.26,2.16,2,3.2.9,1.35,1.93,2.61,3,3.87,2.41,3,4.88,6,8.07,8.11l.68.43c-.53-2.7-1.17-5.24-1.47-8s-1.93-4.32-3.68-6.45c-4.94-6-5.7-9.3-9.22-15.52-.37-.65-1.2-2.45-1.52-3.13-.4-.85-1.09-2.18-1.41-3.07-.58-1.61-2-5.26-2.72-6.8-7-14.61-6.6-37,3.91-50.59a16.08,16.08,0,0,0,2-3.34c.07,0-3.56-2.24-3.6-2.18s-.11.19-.16.28c-.21.36-.4.64-.6,1l-.35.6Z" transform="translate(-1834.35 -1605.35)" style="fill:#f9e5ee"/><path d="M2216.89,1913.3c-.87,6.58,11.58,9.63,17.37,13.11s12.09,6.1,17.65,9.94c15.47,10.69,23.28,29.57,26.42,48.11,1.79,10.57,2.32,21.49.05,32s-7.52,20.53-15.81,27.33c-5.09,4.16-12.22,7-18.18,4.29-11.2-5.2-21.52-14.08-29.29-23.67-4.45-5.48-3.68-13.35-7.63-19.2-10.19-15.06-18-28.72-29.42-42.87-9.76-12.08-14.6-29.73-16.81-45.1-1.37-9.56,4.26-26.3,10.27-36.85" transform="translate(-1834.35 -1605.35)" style="fill:none;stroke:#231f20;stroke-miterlimit:10;stroke-width:3px"/></g></g><g id="Pencil"><g id="Under-3" data-name="Under"><path d="M2434.65,2393.39a77.68,77.68,0,0,1,6.46,13.25l10.75,26.17c.72,1.76,1.46,3.69,1,5.53a8.76,8.76,0,0,1-1.83,3.09L2430.63,2467c-4.83,6.06-9.69,12.18-13.09,19.14s-5.28,14.92-3.76,22.51c.66,3.29.44,6.67.73,10,.2,2.24.39,4.49.66,6.73,1.68,14.17,6.13,27.88,11.48,41.11a139.19,139.19,0,0,0,7.92,16.86c.1.17.23.36.43.36s.27-.37.07-.37a217.85,217.85,0,0,0,28.75,24.75,66.09,66.09,0,0,0,6.9,4.47,39,39,0,0,0,27.59,3.59,21,21,0,0,0,7.46-3.21c6.37-4.65,7.95-13.62,13.5-19.22a1.62,1.62,0,0,1,1.39-.64c.7.16.85,1.08.84,1.81-.17,7-2.92,13.65-6.39,19.71-.3.52-.82,1.11-1.37.89a24.17,24.17,0,0,1-6.36,10c-6.88,6.39-16.79,8.18-26.15,8.92a170.72,170.72,0,0,1-41.08-1.75,68.46,68.46,0,0,1-13.92-3.52c-6.23-2.45-11.79-6.33-17.24-10.22-12.75-9.1-25.74-19-32.9-32.88-6.64-12.89-14-25.53-18-39.45-.6-2.07-1.16-4.15-1.56-6.27-1.2-6.35-.93-12.87-.66-19.32l.46-10.82a137.16,137.16,0,0,1,1.76-13.68c3.9-27.45,17.85-52.62,35.09-74.33,5.58-7,10.56-13.86,17.88-19,4.18-3,8.37-5.9,12.59-8.78a14.21,14.21,0,0,1,4.95-2.47C2430.47,2391.49,2433.6,2391.8,2434.65,2393.39Z" transform="translate(-1834.35 -1605.35)" style="fill:#5bb8e8"/><path d="M2424.39,2401.82c-2.58,1.56-7.42,4.35-9.37,6.65-2.61,3.06-5,5.23-8.3,8.55a150.13,150.13,0,0,0-15.86,19c-8.52,12.13-13.94,24.44-19.47,38.17-1.12,2.78-3,6-3.78,8.88a160.3,160.3,0,0,0-4.41,25.41c-.76,7.35.18,15.75,0,23.13a111.33,111.33,0,0,0,1.53,18.21c.78,5.56,3.23,10.74,5.64,15.81,1.57,3.33,3.48,6.49,5.27,9.7a165.48,165.48,0,0,1,9.19,19.36c-3.37-2.75-7-5.65-9.63-9.09-4.92-6.37-8.43-13.7-11.64-21.08-2.35-5.41-4.58-10.95-5.47-16.79a74.12,74.12,0,0,1-.66-7.74l-.64-12.59a140.4,140.4,0,0,1,3.48-38.33c1.72-7.54,2.61-15.47,5.41-22.77,2.23-5.82,5.64-11.12,8.76-16.48a273.93,273.93,0,0,1,27.82-39.51c3.69-4.33,7.43-8.69,11.88-12.25a12.66,12.66,0,0,1,5-2.76,3.55,3.55,0,0,1,1.83,0C2422.79,2395.86,2424.29,2399.93,2424.39,2401.82Z" transform="translate(-1834.35 -1605.35)" style="fill:#fff"/><path d="M2452.27,2436.75a9.89,9.89,0,0,0-4.05,2.27c-3.5,3.2-6.66,5.42-9.94,8.82-1.72,1.78-7.82,7.58-9.41,9.48a103.82,103.82,0,0,0-9.93,14.14c-3.3,5.59-6.6,12.53-7.58,18.95-1.28,8.44-1.26,9-1.28,18.07,0,2.95.71,15.25.92,18.19a141.09,141.09,0,0,0,3.06,18.69c.5,2.41,1,4.83,1.74,7.18a80.74,80.74,0,0,0,3.37,9.75c2.6,5.67,4.6,11.69,8.29,16.72,6.36,8.69,14.71,14.94,22.66,21.92,6.32,5.56,12.89,10.94,20.24,15s15.59,6.89,24,7a14.19,14.19,0,0,0,7.26-1.48,17.11,17.11,0,0,0,4.19-3.87c5.33-6.16,10.77-12.51,13.61-20.15a61.47,61.47,0,0,0,2.89-13.44,272.22,272.22,0,0,0,1.62-52.85c-.63-9.45.87-19,1-28.48-9.72,3.57-20.52,3.85-30.87,4.09a82.32,82.32,0,0,1-15.06-.58c-.89-.14-2-.48-2.14-1.37a2.31,2.31,0,0,1,.23-1.28,76.32,76.32,0,0,1,9.25-16.79c5.06-6.93,11.58-13.65,12.23-22.21a9.49,9.49,0,0,0-.23-3.23,8.44,8.44,0,0,0-2.2-3.5c-3.68-3.73-9.17-4.87-14.32-5.81s-10.21-1.83-15.14-.53c-3,.79-5.06.4-7-2a35.13,35.13,0,0,1-3.77-5.28C2454.06,2440.38,2453.16,2440.27,2452.27,2436.75Z" transform="translate(-1834.35 -1605.35)" style="fill:#5e7bbd"/><path d="M2361.54,2561.23a136.08,136.08,0,0,0,13.23,24.66c.43.64.87,1.28,1.32,1.91a134.55,134.55,0,0,0,14,16.89,130.66,130.66,0,0,0,11.79,10.66c1,.81,2,1.61,3.09,2.39.72.54,1.45,1.07,2.18,1.59" transform="translate(-1834.35 -1605.35)" style="fill:none;stroke:#231f20;stroke-miterlimit:10;stroke-width:3px"/></g><path d="M2411.35,2621.63a79.33,79.33,0,0,0,17.6,10.12,31.37,31.37,0,0,0,12.82,2.72c16.66-.42,31.13,1.12,48.6-.39a23.57,23.57,0,0,0,6.9-2.12c8.85-3.66,15.65-11.31,19.79-19.95s5.83-18.26,6.65-27.8c2.35-27.59,2.69-55.47,2.41-83.15" transform="translate(-1834.35 -1605.35)" style="fill:none;stroke:#231f20;stroke-miterlimit:10;stroke-width:3px"/><g id="NoteBook"><g id="Under-4" data-name="Under"><path d="M2717,2447.45c-3,4.27-3.47,9.85-2.77,15a6.79,6.79,0,0,0,1.36,3.71c1.48,1.66,4,1.65,6.22,1.94,5.45.72,10.31,4,14,8.08s6.23,9,8.66,14c18.08,36.7,29.7,76.17,42.36,115.08,2.34,7.18,4.73,14.39,8.31,21,.62,1.16,1.4,3.49,2.69,3.77s2.5-1.58,3.56-2.31c4-2.8,8.49-6.28,8.78-11.18a16.38,16.38,0,0,0-1.13-5.88L2798.82,2579q-10.05-31.23-20.15-62.44c-3.18-9.83-6.38-19.68-10.78-29a122.85,122.85,0,0,0-16.29-25.7,124.31,124.31,0,0,0-10.57-11.32c-3-2.79-7.25-8.24-11.32-9.18C2724.77,2440.18,2719.93,2443.32,2717,2447.45Z" transform="translate(-1834.35 -1605.35)" style="fill:#5e7bbd"/><path d="M2672.72,2529c-.14,15.13-.29,30.26-.81,45.38q-.7,20.15-2.32,40.24a12.87,12.87,0,0,0,.39,5.67,8.6,8.6,0,0,0,1.53,2.46,13.71,13.71,0,0,0,4.73,3.57c.24.11.53.29.49.55s-.57,0-.33-.11a72.17,72.17,0,0,0,44.5,18c-2.75-18.61-5.5-37.23-8.79-55.75-1.37-7.74-2.87-15.58-6.36-22.62a5.33,5.33,0,0,0-2-2.51,6.79,6.79,0,0,0-3-.5,18.3,18.3,0,0,1-10.3-3.68,8.83,8.83,0,0,1-3-3.5,13.39,13.39,0,0,1-.71-4,48.2,48.2,0,0,0-3.19-13.43C2681.75,2534.31,2677.49,2529.2,2672.72,2529Z" transform="translate(-1834.35 -1605.35)" style="fill:#5e7bbd"/><path d="M2716.87,2465.13c7.09-1.78,14.73,1,20.3,5.77s9.4,11.14,12.81,17.6c13.21,25,21.56,52.21,29.84,79.25l11.1,36.26c.57,1.84,1.19,3.95,1.67,5.82,1.06,4.09,7.47,19.16,4.43,21.76-9,7.73-16.85,9.34-28.36,13.78-9.4,3.63-27.21,3.12-37.26,2.41-4-.27-7.83-.42-11-2.84-5.79-4.46-6.91-18-8-25.28-2.93-20.36-7.37-33.3-10.32-53.19-.15-1-.61-1.13-.11-2,.39-.72.19-.51.89-.93,7.53-4.55,14.28-4.68,21.07-10.27a26,26,0,0,0,7.05-9.89c4.55-10.48,4.41-22.32,4.2-33.75-.08-4.43-.17-8.92-1.34-13.2-1.56-5.73-5-10.76-8.31-15.67-3.89-5.71-3.75-8.58-8.68-13.42C2716.94,2466.71,2716.87,2465.72,2716.87,2465.13Z" transform="translate(-1834.35 -1605.35)" style="fill:#5bb8e8"/><path d="M2759.35,2400.13a96.7,96.7,0,0,1,22.87,17.36c15.39,15.28,27.93,33.6,35.19,54,3.42,9.6,7.27,19.25,9.49,29.19,5.12,22.88,9.88,46.49,6,69.59a189.9,189.9,0,0,1-5.79,22.59c-2.6,8.69-9.55,17.79-17.12,22.78-2.19-3.46-4.38-7.84-6.57-11.29-1.84-2.91-2.71-6.35-4.11-9.48s-.51-7-1.44-10.35c-9-32.17-18.49-64.22-28.33-96.13-1.73-5.61-3.55-11.26-6.58-16.28-1.81-3-2.26-6.83-3.89-9.93a52.78,52.78,0,0,0-6.33-8.84,43.13,43.13,0,0,0-6-6.31,39.15,39.15,0,0,0-8.92-5,20.32,20.32,0,0,0-7.69-1.73c-1.32.11-2.85.25-3.92-.52s-1.5-2.34-1.73-3.73a66,66,0,0,1-.71-15.06,13.11,13.11,0,0,1,1.05-4.89,13.34,13.34,0,0,1,2.6-3.3,20.43,20.43,0,0,1,3.89-3.3c3.26-2,7.25-2.26,11-2.79,4.35-.61,8.74-1.67,12.42-4.07a21.44,21.44,0,0,0,3.08-2.46c.19-.17.41-.36.65-.32S2759.6,2400.12,2759.35,2400.13Z" transform="translate(-1834.35 -1605.35)" style="fill:#5e7bbd"/><path d="M2729.35,2439.66c5.85-1.48,12.14-.38,17.64,2.1s10.32,6.24,14.86,10.21a89.52,89.52,0,0,1,14.86,16.08c3.93,5.69,6.87,12,9.75,18.28,5,10.86,9.86,21.81,13.26,33.26a137.3,137.3,0,0,1,4.73,55,69,69,0,0,1-3.26,15.22,1.91,1.91,0,0,1-3.64-.1c-11.48-40.12-23.46-80.83-43.27-117.49-5.12-9.49-11.27-19.21-21-23.87-2.05-1-4.38-1.84-5.56-3.79S2727.08,2439.42,2729.35,2439.66Z" transform="translate(-1834.35 -1605.35)" style="fill:#5bb8e8"/><path d="M2800.16,2629.91c-22.86,20.51-60.85,22-90.4,13.33-14.46-4.26-28.22-11.36-39.31-21.57a30.83,30.83,0,0,1-.86-5.2c-.72-15.47,2-30.88,2.48-46.36.43-13.72-.1-30.67,1.23-44.34" transform="translate(-1834.35 -1605.35)" style="fill:none;stroke:#231f20;stroke-miterlimit:10;stroke-width:3px"/></g><rect x="549.05" y="862.19" width="388.98" height="231.25" style="fill:#419a58"/><rect x="556.19" y="862.19" width="375.15" height="231.25" style="fill:#2bb56d"/><path d="M2399.29,2697.51c58.53-14.19,120.29-12.91,178.82,1.28V2467.54a380.9,380.9,0,0,0-178.82,0Z" transform="translate(-1834.35 -1605.35)" style="fill:#fbe5c3"/><path d="M2578.11,2698.79c58.53-14.19,120.28-15.16,178.81-1V2467.54a380.86,380.86,0,0,0-178.81,0Z" transform="translate(-1834.35 -1605.35)" style="fill:#fbe5c3"/><path d="M2399.29,2698.79h178.82S2492.63,2674.34,2399.29,2698.79Z" transform="translate(-1834.35 -1605.35)" style="fill:#419a58"/><path d="M2580.22,2698.79H2759S2673.55,2674.34,2580.22,2698.79Z" transform="translate(-1834.35 -1605.35)" style="fill:#419a58"/><polygon points="740.17 861.17 739.37 1092.4 743.76 1093.43 748.18 1092.18 745.87 861.17 743.76 862.19 740.17 861.17" style="fill:#ead4b5"/><path d="M2408.94,2535.13v6.36a267.93,267.93,0,0,1,141.39,0v-6.36A267.93,267.93,0,0,0,2408.94,2535.13Z" transform="translate(-1834.35 -1605.35)" style="fill:#b4b4b4"/><path d="M2408.94,2552.2v6.37a267.93,267.93,0,0,1,141.39,0v-6.37A267.93,267.93,0,0,0,2408.94,2552.2Z" transform="translate(-1834.35 -1605.35)" style="fill:#b4b4b4"/><path d="M2408.94,2570.4v6.37a267.93,267.93,0,0,1,141.39,0v-6.37A267.93,267.93,0,0,0,2408.94,2570.4Z" transform="translate(-1834.35 -1605.35)" style="fill:#b4b4b4"/><path d="M2408.94,2586.77v6.37a267.93,267.93,0,0,1,141.39,0v-6.37A267.93,267.93,0,0,0,2408.94,2586.77Z" transform="translate(-1834.35 -1605.35)" style="fill:#b4b4b4"/><path d="M2408.94,2603.84v6.37a267.93,267.93,0,0,1,141.39,0v-6.37A267.93,267.93,0,0,0,2408.94,2603.84Z" transform="translate(-1834.35 -1605.35)" style="fill:#b4b4b4"/><path d="M2408.94,2622v6.37a267.93,267.93,0,0,1,141.39,0V2622A267.93,267.93,0,0,0,2408.94,2622Z" transform="translate(-1834.35 -1605.35)" style="fill:#b4b4b4"/><path d="M2408.94,2636.12v6.37a267.93,267.93,0,0,1,141.39,0v-6.37A267.93,267.93,0,0,0,2408.94,2636.12Z" transform="translate(-1834.35 -1605.35)" style="fill:#b4b4b4"/><path d="M2408.94,2653.19v6.37a267.93,267.93,0,0,1,141.39,0v-6.37A267.93,267.93,0,0,0,2408.94,2653.19Z" transform="translate(-1834.35 -1605.35)" style="fill:#b4b4b4"/><path d="M2408.94,2671.39v6.37a267.93,267.93,0,0,1,141.39,0v-6.37A267.93,267.93,0,0,0,2408.94,2671.39Z" transform="translate(-1834.35 -1605.35)" style="fill:#b4b4b4"/><path d="M2596.82,2537v6.37a267.93,267.93,0,0,1,141.39,0V2537A267.93,267.93,0,0,0,2596.82,2537Z" transform="translate(-1834.35 -1605.35)" style="fill:#b4b4b4"/><path d="M2596.82,2554.06v6.37a267.93,267.93,0,0,1,141.39,0v-6.37A267.93,267.93,0,0,0,2596.82,2554.06Z" transform="translate(-1834.35 -1605.35)" style="fill:#b4b4b4"/><path d="M2596.82,2572.26v6.37a267.93,267.93,0,0,1,141.39,0v-6.37A267.93,267.93,0,0,0,2596.82,2572.26Z" transform="translate(-1834.35 -1605.35)" style="fill:#b4b4b4"/><path d="M2596.82,2588.64V2595a267.93,267.93,0,0,1,141.39,0v-6.37A267.93,267.93,0,0,0,2596.82,2588.64Z" transform="translate(-1834.35 -1605.35)" style="fill:#b4b4b4"/><path d="M2596.82,2605.71v6.37a267.93,267.93,0,0,1,141.39,0v-6.37A267.93,267.93,0,0,0,2596.82,2605.71Z" transform="translate(-1834.35 -1605.35)" style="fill:#b4b4b4"/><path d="M2596.82,2623.91v6.37a267.93,267.93,0,0,1,141.39,0v-6.37A267.93,267.93,0,0,0,2596.82,2623.91Z" transform="translate(-1834.35 -1605.35)" style="fill:#b4b4b4"/><path d="M2596.82,2638v6.37a267.93,267.93,0,0,1,141.39,0V2638A267.93,267.93,0,0,0,2596.82,2638Z" transform="translate(-1834.35 -1605.35)" style="fill:#b4b4b4"/><path d="M2596.82,2655.05v6.37a267.93,267.93,0,0,1,141.39,0v-6.37A267.93,267.93,0,0,0,2596.82,2655.05Z" transform="translate(-1834.35 -1605.35)" style="fill:#b4b4b4"/><path d="M2596.82,2673.25v6.37a267.93,267.93,0,0,1,141.39,0v-6.37A267.93,267.93,0,0,0,2596.82,2673.25Z" transform="translate(-1834.35 -1605.35)" style="fill:#b4b4b4"/><path d="M2447.25,2474.46c.64,2.06,1.36,4.09,2.17,6.11a267.72,267.72,0,0,1,100.91,7.74v-6.37A267.86,267.86,0,0,0,2447.25,2474.46Z" transform="translate(-1834.35 -1605.35)" style="fill:#b4b4b4"/><path d="M2454,2490.79c1,2,2,4.05,3,6.07a267.81,267.81,0,0,1,93.32,8.52V2499A267.77,267.77,0,0,0,2454,2490.79Z" transform="translate(-1834.35 -1605.35)" style="fill:#b4b4b4"/><path d="M2462.55,2508.3c.93,2.06,1.8,4.13,2.59,6.21a267.74,267.74,0,0,1,85.19,9.07v-6.37A267.81,267.81,0,0,0,2462.55,2508.3Z" transform="translate(-1834.35 -1605.35)" style="fill:#b4b4b4"/><path d="M2649.3,2475.51a25.63,25.63,0,0,1,1.49,6.25,267.84,267.84,0,0,1,87.42,8.91v-6.37A267.57,267.57,0,0,0,2649.3,2475.51Z" transform="translate(-1834.35 -1605.35)" style="fill:#b4b4b4"/><path d="M2650,2492.52a25.28,25.28,0,0,1-2.93,6.55,268.13,268.13,0,0,1,91.17,8.67v-6.36A267.6,267.6,0,0,0,2650,2492.52Z" transform="translate(-1834.35 -1605.35)" style="fill:#b4b4b4"/><path d="M2650.43,2510.66c.92,2.06,1.79,4.13,2.59,6.22a268.05,268.05,0,0,1,85.19,9.06v-6.36A267.84,267.84,0,0,0,2650.43,2510.66Z" transform="translate(-1834.35 -1605.35)" style="fill:#b4b4b4"/><path d="M2383.39,2698.79h389V2467.54h-15.45s-7.84-1.86-11.93-2.69-13.28-2.56-17.3-3.18-13.81-2-18.54-2.5-8-.9-14.54-1.31-10.3-.64-14.72-.76-10.82-.26-15.06-.2-9.28.09-15.17.42-12.33.63-19.65,1.42-7.38.7-13.49,1.58-10.25,1.5-13.11,2-10,1.82-13.17,2.49-10,2.22-10,2.22l-2.11.51-3.59-1-10.26-2.06c-1.84-.37-4.42-.92-8.58-1.64s-12.74-2.2-20.11-3-9.71-1.11-13.55-1.43-10-.79-14.61-1-8.94-.48-16.42-.45-15.23.1-21.68.48-14.61.87-22.06,1.76-8.89,1-15.13,2-9.9,1.57-14.22,2.41-18.61,4-18.61,4h-15.9Z" transform="translate(-1834.35 -1605.35)" style="fill:none;stroke:#231f20;stroke-miterlimit:10;stroke-width:3px"/><path d="M2596.82,2519.59V2526a267.93,267.93,0,0,1,141.39,0v-6.37A267.93,267.93,0,0,0,2596.82,2519.59Z" transform="translate(-1834.35 -1605.35)" style="fill:#b4b4b4"/><path d="M2596.82,2501.4v6.37a267.93,267.93,0,0,1,141.39,0v-6.37A267.93,267.93,0,0,0,2596.82,2501.4Z" transform="translate(-1834.35 -1605.35)" style="fill:#b4b4b4"/><path d="M2596.82,2484.34v6.37a267.93,267.93,0,0,1,141.39,0v-6.37A267.93,267.93,0,0,0,2596.82,2484.34Z" transform="translate(-1834.35 -1605.35)" style="fill:#b4b4b4"/><path d="M2409,2517.07v6.37a267.89,267.89,0,0,1,141.38,0v-6.37A267.89,267.89,0,0,0,2409,2517.07Z" transform="translate(-1834.35 -1605.35)" style="fill:#b4b4b4"/><path d="M2409,2499v6.37a267.89,267.89,0,0,1,141.38,0V2499A267.89,267.89,0,0,0,2409,2499Z" transform="translate(-1834.35 -1605.35)" style="fill:#b4b4b4"/><path d="M2409,2482v6.37a267.89,267.89,0,0,1,141.38,0V2482A267.89,267.89,0,0,0,2409,2482Z" transform="translate(-1834.35 -1605.35)" style="fill:#b4b4b4"/><g id="Over-3" data-name="Over"><path d="M2758.33,2399.61q-2.35-1.18-4.81-2.19c-10.88-4.43-23.28-5.78-34.46-2.17-18,5.81-30.12,23.82-33,42.48s2.25,37.73,10,54.93a181.16,181.16,0,0,0,8.88,17.11c4,6.81,8.5,13.44,11,20.94,2.33,7,2.8,14.48,3.26,21.85,5.76,0,9.72-5.77,11.84-11.13a63.57,63.57,0,0,0-3-52.64c-3.06-5.71-7-10.92-10-16.67s-5-12.29-3.92-18.67,6.12-12.38,12.57-13c-5.41-19.42,6.7-32.42,19.93-31.86,1.66.07,5.27-2.09,6.5-3.2,2.13-1.93,4.21-3,5.35-5.66A.75.75,0,0,1,2758.33,2399.61Z" transform="translate(-1834.35 -1605.35)" style="fill:#5e7bbd"/><path d="M2758,2400.67c-5.07-1-16.41-6.74-26.3-6.72a35.69,35.69,0,0,0-26.32,11.64,49.08,49.08,0,0,0-8.47,14.48,85.11,85.11,0,0,0-3.41,53.68c4.89,17.94,15.75,33.54,24.19,50.1,3.5,6.87,2.14,14.89,2.29,22.59.05,2.83,0,5.86-1.68,8.18s-4.49,3.47-7.2,4.37c-3.23,1.07-6.52,2-9.84,2.77-2.23.52-4.63,1-6.79.18-2.69-1-4.37-3.64-5.57-6.23-3-6.55-4.3-13.92-8.24-20-3.32-5.1-8.28-8.86-12.86-12.86a124.57,124.57,0,0,1-31.33-42.14c-1.11-2.45-2.15-4.95-3.14-7.45a46.11,46.11,0,0,1-3.4-11.83c-.79-7.11,1.43-14.18,3.62-21,1.63-5.09,4.62-10,6.93-14.8a46.22,46.22,0,0,1,4.56-8.05,40.43,40.43,0,0,1,6.87-6.65c6.94-5.62,14.41-10.74,22.74-14a106.74,106.74,0,0,1,11.38-3.48c10.54-2.77,21.25-5.28,32.14-5.72s22.1,1.33,31.61,6.66C2753.61,2396.64,2758,2396.1,2758,2400.67Z" transform="translate(-1834.35 -1605.35)" style="fill:#5bb8e8"/><path d="M2636.83,2462.41a71.45,71.45,0,0,0,1.75,9,61.65,61.65,0,0,0,4.05,10.69c3.37,7.3,8.93,13.31,14.46,19.15,8.07,8.55,16.83,16.47,23.76,26,2.77,3.8,6.28,8.49,5.88,13.17-1.56-.41-2.61-2.64-3.57-3.94-5.09-6.88-12.14-12-18.38-17.84a167.4,167.4,0,0,1-13.25-14.29c-5-5.86-9.82-11.88-13.48-18.63a71.5,71.5,0,0,1-8.11-28.09,36.72,36.72,0,0,1,.44-10.93,47.65,47.65,0,0,1,4.29-10.78c2.09-4.21,4.17-9.13,7.41-12.61,1.44-1.53,2.83-8,4.43-5.56s-2.84,12.6-4,14.92a61,61,0,0,0-4.89,13.81A52.64,52.64,0,0,0,2636.83,2462.41Z" transform="translate(-1834.35 -1605.35)" style="fill:#fae6f0"/><path d="M2800.16,2629.25" transform="translate(-1834.35 -1605.35)" style="fill:#fff"/><path d="M2806.37,2620.05c3.47-3.45,6.25-10.57,8.81-14.75a49.6,49.6,0,0,0,5.34-11.69c1.83-6.5,4.83-15.78,5.76-22.46,1.7-12.12,1.47-20.91,1.44-32.8,0-5.94-.57-12.5-.77-18.43-.19-5.64-1.58-11.86-1.13-17.43,2.7.09,3.62,7.27,4.14,9.33a98.42,98.42,0,0,1,2.31,12.61,166.19,166.19,0,0,1,.9,16.84c.3,18.9-.5,38.66-9.7,55.17-2.9,5.2-6.57,9.95-9.23,15.28a45.2,45.2,0,0,1-3.69,6.9,61.92,61.92,0,0,1-4.59,5c-3.65,4,.58,3-4.36,5.2Z" transform="translate(-1834.35 -1605.35)" style="fill:#fff"/><path d="M2799.79,2630.27c5.95-5.66,10.89-12.29,15.75-18.9a83.86,83.86,0,0,0,7.34-11.19,65.24,65.24,0,0,0,4.11-10.37,131,131,0,0,0,6.1-43.73,253.15,253.15,0,0,0-3.32-35.09c-2.74-15.65-7.12-30.88-14.05-45.19-8.49-17.54-18.64-34.49-32.16-48.53s-30.67-25.06-49.75-29c-16.5-3.44-33.93-1.48-49.72,4.43s-31.28,15.31-41.87,28.44a58,58,0,0,0-10.78,50.31c3,11.45,9.52,21.71,17.19,30.72s16.53,16.93,25,25.14c5.27,5.09,10.68,10.75,12.05,17.94.94,4.93.05,10.6,3.28,14.44,2.81,3.33,7.76,3.9,12.08,3.28,8.35-1.21,15.89-5.88,21.92-11.77a33.44,33.44,0,0,0,7-9.28,39.16,39.16,0,0,0,2.85-9.56c2.9-15,2.76-31.31-4.43-44.83-3.11-5.87-7.44-11-10.68-16.81s-5.38-12.68-3.57-19.07a17.14,17.14,0,0,1,13.7-12" transform="translate(-1834.35 -1605.35)" style="fill:none;stroke:#231f20;stroke-miterlimit:10;stroke-width:3px"/></g></g><rect x="2444.33" y="2363.28" width="25.92" height="291.94" transform="translate(1627.21 4269.32) rotate(-152.21)" style="fill:#e5be79"/><path d="M2526,2330.94h25.92a0,0,0,0,1,0,0v40.14a6.4,6.4,0,0,1-6.4,6.4h-13.13a6.4,6.4,0,0,1-6.4-6.4v-40.14a0,0,0,0,1,0,0Z" transform="translate(1853.45 4015.19) rotate(-152.21)" style="fill:#e16964"/><path d="M2401.22,2643.46c-.51,1-22.95,28.64-22.95,28.64l-11.53-5.92,11.55-34.8s3.28-3.51,6.54-2.91,2.8,6.89,2.8,6.89l4.8-3c2.43,1.5,3.59,7.43,3.59,7.43l4.1-2.76C2403.51,2638.72,2401.22,2643.46,2401.22,2643.46Z" transform="translate(-1834.35 -1605.35)" style="fill:#fcd695"/><path d="M2378.27,2672.1c-.43.57-12.83,15.52-14.5,14.64s3-20.57,3-20.57Z" transform="translate(-1834.35 -1605.35)" style="fill:#88867b"/><rect x="2513.41" y="2357.1" width="25.92" height="42.13" transform="translate(1818.5 4054.45) rotate(-152.21)" style="fill:#88867b"/><path d="M2511.62,2381l20.94,11a4.19,4.19,0,0,1,1.75,5.66h0a4.19,4.19,0,0,1-5.66,1.75l-20.93-11a4.18,4.18,0,0,1-1.76-5.65h0A4.18,4.18,0,0,1,2511.62,2381Z" transform="translate(-1834.35 -1605.35)" style="fill:#88867b"/><path d="M2525,2355.62l20.94,11a4.18,4.18,0,0,1,1.75,5.65h0a4.18,4.18,0,0,1-5.66,1.75l-20.94-11a4.18,4.18,0,0,1-1.75-5.65h0A4.2,4.2,0,0,1,2525,2355.62Z" transform="translate(-1834.35 -1605.35)" style="fill:#88867b"/><path d="M2528,2402.83l-13.21,25.09-78.47,148.91-23.73,45-11.89,22.56-19.33,23.84-3.11,3.83-5.36,6.28-1.61,1.79-1.12,1.21-1.68,1.75s-1.3,1.29-1.81,1.77-1.21,1-1.21,1l-.58.42a3.56,3.56,0,0,1-.6.33,1,1,0,0,1-.26.08h-.15l-.14-.05a.48.48,0,0,1-.1-.09c-.06-.07-.05-.09-.11-.23a4.58,4.58,0,0,1-.13-.91c0-.28,0-.94,0-.94s.22-2.43.34-3.25.45-2.91.45-2.91l2.54-12.23,2.21-6.69,3.5-10.54,5.32-16.59,10.61-20.14,6.35-12.05,9.43-17.89,10.78-20.46,10.94-20.76,8.55-16.23,9.52-18.06,9-17,9.2-17.45,8.53-16.2,10.47-19.86,9.48-18,15.63-29.66.49-.92s-.23-.24-.37-.41a4.61,4.61,0,0,1-.29-.43,3.62,3.62,0,0,1-.26-.53,6.14,6.14,0,0,1-.21-.66,5.74,5.74,0,0,1-.1-.62c0-.12,0-.38,0-.65a5.06,5.06,0,0,1,.14-.8,4.36,4.36,0,0,1,.62-1.28,4.31,4.31,0,0,1,.36-.46,4.58,4.58,0,0,1,.5-.45,4,4,0,0,1,.34-.23,4.11,4.11,0,0,1,.63-.32,3.87,3.87,0,0,1,.58-.19,4.6,4.6,0,0,1,.68-.11,3.69,3.69,0,0,1,.67,0,4.14,4.14,0,0,1,.44.06l.26-.5,1.37-2.61,1.37-2.58,1.18-2.25,1.28-2.42.93-1.78.79-1.5,1-1.91.74-1.41.69-1.31-.11-.12c-.09-.09-.24-.29-.4-.5a3.41,3.41,0,0,1-.31-.54,6.65,6.65,0,0,1-.24-.64,4.43,4.43,0,0,1-.12-.5c0-.11,0-.24,0-.47a5.22,5.22,0,0,1,0-.75,3.41,3.41,0,0,1,.21-.85,3.77,3.77,0,0,1,.31-.67,4.16,4.16,0,0,1,.37-.56,3.39,3.39,0,0,1,.33-.35,4.42,4.42,0,0,1,.47-.41,4.7,4.7,0,0,1,.7-.41,3.62,3.62,0,0,1,.64-.23,4,4,0,0,1,.84-.15,5.18,5.18,0,0,1,.7,0l.37.05.1-.18.72-1.38.51-1,1-1.88,1.09-2.07,1.06-2,.87-1.64.82-1.55.84-1.6.76-1.45.58-1.09.81-1.55.75-1.42,1-1.93,1-1.94.74-1.41c.19-.36.42-.78.53-.94a2.33,2.33,0,0,1,.36-.43,3,3,0,0,1,.34-.31,3.1,3.1,0,0,1,.63-.38,3.26,3.26,0,0,1,.74-.25,3.78,3.78,0,0,1,1-.06,2.45,2.45,0,0,1,1.29.38l10,5.29,6.93,3.65a1.37,1.37,0,0,1,.3.18,2.59,2.59,0,0,1,.44.35,2.2,2.2,0,0,1,.39.44,2.39,2.39,0,0,1,.4.7,7.2,7.2,0,0,1,.24.86,2.07,2.07,0,0,1,0,.44c0,.25-.07.7-.07.7l-.1.35-.12.32-.68,1.3-1,2-2,3.85-5.28,10-3.15,6-.89,1.68a3,3,0,0,1,.33.33,4.65,4.65,0,0,1,.51.71,4.33,4.33,0,0,1,.54,1.73,5.07,5.07,0,0,1,0,.79,4.67,4.67,0,0,1-.22.94,3.1,3.1,0,0,1-.16.4c-.07.13-.14.28-.23.42a4.27,4.27,0,0,1-1,1.08,4.2,4.2,0,0,1-.63.41,4.77,4.77,0,0,1-.63.27,4.58,4.58,0,0,1-.79.18,3.84,3.84,0,0,1-.55,0,4.36,4.36,0,0,1-.51,0l-.47-.09-.32.61-8.91,16.9-.35.66s.14.12.28.27a3.8,3.8,0,0,1,.39.49,5.17,5.17,0,0,1,.39.72c.08.21.16.43.19.54a4.33,4.33,0,0,1,.09.47,3.53,3.53,0,0,1,.05.56,3.58,3.58,0,0,1-.14,1.13,2.41,2.41,0,0,1-.13.41,6.71,6.71,0,0,1-.29.63l-.23.34a1.27,1.27,0,0,1-.2.26,6.11,6.11,0,0,1-.51.51,4.87,4.87,0,0,1-.52.37,3.85,3.85,0,0,1-.61.3,5.22,5.22,0,0,1-.72.22c-.24,0-.5.07-.66.08a4,4,0,0,1-.57,0c-.24,0-.59-.1-.59-.1l-.33.63Z" transform="translate(-1834.35 -1605.35)" style="fill:none;stroke:#231f20;stroke-miterlimit:10;stroke-width:3px"/><g id="Over-4" data-name="Over"><path d="M2436.54,2401.36c-2.09-5.4-3.93-12.09-.18-16.5,2-2.39,5.21-3.41,8.23-4.23a190.58,190.58,0,0,1,43.89-6.63,58.56,58.56,0,0,1,15.19,1c5.08,1.19,9.81,3.52,14.48,5.84,6,3,12.08,6,17.89,9.47,5.21,3.08,10.3,6.55,14.29,11.12s6.86,10.38,9.59,16c2.65,5.46,5.32,11,6.59,16.91,2.08,9.7.26,19.91-3.44,29.12a72.85,72.85,0,0,1-33,36.92,69.14,69.14,0,0,1-49,6c-2.79-.71-2-.89-2.39-3.74-.2-1.46,1.29-3.9,2.06-5.15,5-8.16,8.58-14.36,13.1-22.22,2.89-5,7.94-11.5,5.82-16.91-1.4-3.56-8-5.78-11.62-7a29.91,29.91,0,0,0-11.35-1,101.93,101.93,0,0,0-14.75,2.31c-2.53.54-2.64.7-3.78-1.29s-1.91-4.34-2.88-6.4q-6.52-13.83-12.41-27.93Q2439.63,2409.28,2436.54,2401.36Z" transform="translate(-1834.35 -1605.35)" style="fill:#5bb8e8"/><path d="M2450.13,2439.15c.25-.34.48-1.6.83-1.83,1.82-1.17,3.64-1.55,5.58-2.5,3.4-1.66,6.57-2.49,9.89-4,1.67-.75,3.38-1.37,5.1-2,13.08-4.73,26.81-11.16,40.12-11.16a13.86,13.86,0,0,0,8.2-2.45,26.87,26.87,0,0,0,2.37-2,22.4,22.4,0,0,0,3-3.15,17.58,17.58,0,0,0,2.2-4.37,39.8,39.8,0,0,0,2.06-8.26,81.25,81.25,0,0,1,21,24.66,60,60,0,0,1,7.23,21.62A39.21,39.21,0,0,1,2554,2466c-.55,1.07-.92,2.26-1.56,3.28a68.88,68.88,0,0,1-32,27.59,80.8,80.8,0,0,1-12.72,4.29,43,43,0,0,1-8.27,1.19,31.17,31.17,0,0,1-6-.89,68.08,68.08,0,0,1-12.71-4c4.9-8.37,8.81-15.25,13.56-24.05,0-.07.89-2,.93-2,1.58-2.86,3.9-6.29,3.69-9.48-.09-1.49-1.3-2.33-1.79-3.62-2.19-5.79-7.74-6.79-13.92-6.8-2.22,0-4.43.38-6.64.31-2-.06-4-.49-6-.48-3.39,0-6.63,1.26-9.78,2.49a5.09,5.09,0,0,0-1.4.57,153.21,153.21,0,0,1-8.83-14C2450.21,2439.79,2450.08,2439.86,2450.13,2439.15Z" transform="translate(-1834.35 -1605.35)" style="fill:#5e7bbd"/><path d="M2480,2447.09a50.6,50.6,0,0,1,15.29,4.56,12.18,12.18,0,0,1,4.94,3.46c2.26,2.88,3,3.12,3.58,7.37a33.06,33.06,0,0,1-1.14,11.27.62.62,0,0,1-1.21-.09,37.24,37.24,0,0,0-2.05-7.45,18.5,18.5,0,0,0-3.47-5.95c-2.74-2.93-6.73-4.31-10.64-5.2a59.7,59.7,0,0,0-14.22-1.47c-1.86,0-12.65,2.19-13.33,1.22-1.61-2.28,7.76-5.76,9.1-6.21A31.55,31.55,0,0,1,2480,2447.09Z" transform="translate(-1834.35 -1605.35)" style="fill:#231f20"/><path d="M2457.51,2384.94c-5.15,2.43-10.35,4.78-15.68,6.77a21.09,21.09,0,0,0-4.91,2.27c-.88.62-2,1.08-2.93,1.65-3.17,2-5.89,3.94-9,5.83-.8.48-1.5,1.16-2.35.78s-.95-1.56-1.18-2.39l-.55-1.93a3.2,3.2,0,0,1-.17-1.1,2.91,2.91,0,0,1,.94-1.59c4.59-4.77,10.8-7.55,16.85-10.22,7.43-3.28,15-6.59,23-7.72a42.56,42.56,0,0,1,5.41-.42c.82,0,3.8-.13,3.87,1.1s-3,2-3.76,2.4Q2462.29,2382.7,2457.51,2384.94Z" transform="translate(-1834.35 -1605.35)" style="fill:#fff"/></g><path d="M2475,2504.5c9.95,4.29,21.3,4.26,32,2.38a82.84,82.84,0,0,0,31.27-12,62.41,62.41,0,0,0,22.15-24.89c4.94-10.39,8-23.57,6-34.88-2.94-16-13.1-30-25.2-40.84a78.17,78.17,0,0,0-43.75-19.68,110.69,110.69,0,0,0-15.56-.3c-15.28.6-32.06,3.16-46,10.62-5,2.68-10.13,5.8-14.87,9a113.12,113.12,0,0,0-25.65,23.51,205.16,205.16,0,0,0-31.26,54.47c-.63,1.62-1.23,3.25-1.75,4.9a102.68,102.68,0,0,0-2.72,11.91c-1.94,10.36-3.37,20.85-2.91,31.39.25,5.55,0,11.77.19,17.46a79.11,79.11,0,0,0,1,12,61.65,61.65,0,0,0,3.73,11.74" transform="translate(-1834.35 -1605.35)" style="fill:none;stroke:#231f20;stroke-miterlimit:10;stroke-width:3px"/></g><g id="Drawing"><g id="Small_Part" data-name="Small Part"><path d="M3123.29,1868.11c.24-.56-1-.12-.66.35s1.15.2,1.66-.13a28.44,28.44,0,0,0,12.69-27.2c-.42-3.08-1.43-6.22-3.64-8.41-2.46-2.44-6.1-3.37-9.57-3.37s-6.89.81-10.32,1.38c-19.18,3.17-39.07-1.44-58.18,2.17-16.49,3.11-31.47,12.3-43.22,24.28-5.51,5.63-10.44,12-13.54,19.23s-4.28,15.48-2.3,23.11c1.62,6.23,5.21,11.73,8.74,17.11,2.21,3.37,6,7.51,9.83,8.72,3.45-6.33,8.69-11.5,13.83-16.56,11.31-11.12,22.84-22.41,36.88-29.81a163.9,163.9,0,0,1,18.18-7.77,77.84,77.84,0,0,1,8.81-3C3102.2,1865.84,3113.37,1866.68,3123.29,1868.11Z" transform="translate(-1834.35 -1605.35)" style="fill:#5bb8e8;stroke:#231f20;stroke-miterlimit:10;stroke-width:3px"/><path d="M3009.38,1917.22c.44.83.31.71.27.66-1.74-2.13-4.34-4.86-5.53-7.34-2.32-4.85-5-10.18-5.64-15.14a28.31,28.31,0,0,1,.09-8.69c.46-2.25.32-1.27.16,2-.3,6.22,1.9,11.7,4.47,17.43A61,61,0,0,0,3009.38,1917.22Z" transform="translate(-1834.35 -1605.35)" style="fill:#fdf1f6"/><path d="M3042.74,1856.13c3.91,2.1,7.12,6.11,7,10.55a11.49,11.49,0,0,1-1.15,4.4c-3.06,6.61-10.2,10.53-13.61,17-.9,1.69-1.42,4,0,5.33a3.5,3.5,0,0,0,3.61.46,11,11,0,0,0,3.13-2.2c12.76-11.15,25.91-18.67,41.44-25.44a61.14,61.14,0,0,1,20.08-4.48c3.25-.08,6.63.48,9.67-.66a14.81,14.81,0,0,0,4.72-3.21c5.36-5,9.49-11.81,9.29-19.12-.05-2-.57-4.16-2.26-5.16s-4-.36-6,.25c-16.65,5.18-34.56,2.41-52,2.31a61.72,61.72,0,0,0-13.23,1.06,37.89,37.89,0,0,0-14,6.17,38.49,38.49,0,0,0-5.89,5.15c-1.66,1.79-3.44,3.7-.18,4.78S3039.71,1854.5,3042.74,1856.13Z" transform="translate(-1834.35 -1605.35)" style="fill:#5e7bbd"/></g><g id="Lower_Grabbin" data-name="Lower Grabbin"><path d="M3000.18,2265.44c-14.23-5.06-27.34-12.82-41.16-18.92s-28.95-10.58-43.92-8.53c-4.8.67-9.71,2.11-13.22,5.45-3.92,3.74-5.5,9.24-6.93,14.46l-12.54,46a19.27,19.27,0,0,0-1,7.27c.38,3.19,2.33,6,4.6,8.27,5.85,5.87,13.77,9.28,21.71,11.65,28.74,8.55,57.3,11.75,85.31,12.56,34,1,45.78-1.25,77.86-1.24,17.7,0,48,7.57,71,11.27,3.89.62,6.29,2.29,9.88.68,3-1.34,11.09-4.74,13.2-7.22a97.91,97.91,0,0,0,20.7-83.16c.38,1.71-32.53,9.87-35.55,10.53a270.1,270.1,0,0,1-112.87.73C3025,2272.7,3012,2269.64,3000.18,2265.44Z" transform="translate(-1834.35 -1605.35)" style="fill:#5bb8e8;stroke:#231f20;stroke-miterlimit:10;stroke-width:3px"/><path d="M2921.13,2277.59l44.89,11.74c8.71,2.28,17.43,4.56,26.32,6a224.38,224.38,0,0,0,32.67,2.35,570,570,0,0,0,103.12-8c16-2.73,32.53-6.4,45.46-16.25,2.44,13.59-1.43,27.71-8.06,39.82s-15.9,22.54-25.08,32.86c-1.61,1.8-1.59,1.36-3.81,2.31s-4.71-.22-6.8-.57c-15.14-2.48-18.76-3-32.1-5.83-19.53-4.07-47.08-1.94-67-1.19-16.26.61-32.56,1.08-48.82.69-25.22-.6-50.47-5.35-74.53-12.92-4.77-1.5-6.36-2.44-16.23-8.07-11.61-6.62-5.55-18.28-2.77-26.71,1.62-4.91,3.12-18,8.68-19.13C2905.26,2273,2913.28,2275.53,2921.13,2277.59Z" transform="translate(-1834.35 -1605.35)" style="fill:#5e7bbd"/><path d="M2911.12,2241.39c3.85-1.33,7.89-1.38,11.9-1.24a62.57,62.57,0,0,1,12,1.52,109.26,109.26,0,0,1,15.35,4.6c3.34,1.3,5.58,2.21,8.92,3.5,3.05,1.19,7.14,3.25,10.12,4.6,2.23,1,4.21,2.41,6.39,3.53,6,3.1,16.43,7.79,14.25,6.78-8-2.73-11.71-4.83-19.3-8.47a227.44,227.44,0,0,0-32.31-12.47,73.76,73.76,0,0,0-15.3-2.74,36.57,36.57,0,0,0-10.48,1c-1.52.4-6.34,2.53-7.64,2.88C2904.26,2245.12,2907.51,2242.64,2911.12,2241.39Z" transform="translate(-1834.35 -1605.35)" style="fill:#fff"/></g><g id="Palette"><path d="M3038.1,2206.3c-13.76,6.38-25.31,18.15-29.76,32.65s-1.06,31.56,9.83,42.12c6.11,5.93,14.08,9.57,22.12,12.38a144,144,0,0,0,83.3,3.32c31-8.12,58.6-26.59,81.22-49.28s40.63-49.55,57.05-77.07a301.83,301.83,0,0,0,31-69.85c7.27-24.7,12.19-54,1.35-75.66-14.41-28.78-25.61-38.92-50-52.7-14-7.9-23.68-8.08-36.75-7.88a243.1,243.1,0,0,0-42.55,4.45c-11.59,2.25-23.07,5.38-33.8,10.32-15.6,7.18-29.23,18-41.87,29.66-33.84,31.14-62.18,69.63-74.81,113.85-.21.74-.31,1.41.28,1.9a4.33,4.33,0,0,0,2.14.74c4.48.74,9.55,2.43,11.09,6.69,1.41,3.92-1,8.35-4.34,10.83s-8.15,4.12-9.36,8.19c-.36,1.23,0,3,1.29,3.1a2.76,2.76,0,0,0,1.19-.27c6-2.36,12.09-4.74,17.44-8.36,2.23-1.51,4.32-3.22,6.45-4.86,13.71-10.56,30.6-18.68,47.79-16.7,10.22,1.18,19.66,5.8,29.34,9.27a18.42,18.42,0,0,0,6.26,1.4c2.26,0,4.57-.8,6.74-.17,2.8.82,4.45,3.71,5.36,6.49,2.83,8.58,1.38,18.17-2.52,26.32s-10.06,15-16.75,21.08c-4.54,4.11-9.47,8-15.24,10s-12.53,2.06-17.68-1.25c-2.95-1.9-5.3-4.79-8.6-6-4.39-1.59-9.2.26-13.5,2.09a62.57,62.57,0,0,0-7.75,3.7C3048.84,2200,3043.61,2203.75,3038.1,2206.3Z" transform="translate(-1834.35 -1605.35)" style="fill:#fff;stroke:#231f20;stroke-miterlimit:10;stroke-width:3px"/><g id="Colors"><g id="Green_Paint" data-name="Green Paint"><path d="M3131.18,2207.77c-2.95,1.67-5.33,4.18-7.77,6.53a99.64,99.64,0,0,1-14.56,11.58c-2.5,1.64-5.2,3.2-8.18,3.4-3.58.23-7.14-1.54-10.66-.86a8,8,0,0,0-6.25,6.37,3.54,3.54,0,0,0,.48,2.78c.81,1,2.31,1.15,3.56,1.58a6.45,6.45,0,0,1,3.94,7.57c-.4,1.43-1.31,2.71-1.47,4.19-.29,2.67,2,5,4.53,6a10.92,10.92,0,0,0,8.45-.39c3-1.44,5.24-4.22,8.38-5.3,3.77-1.3,7.85.13,11.81.55,6.33.68,12.74-1.32,18.23-4.55s10.19-7.65,14.66-12.19c2.85-2.88,5.8-6.21,5.92-10.26a6.31,6.31,0,0,0-1.69-4.67,12.41,12.41,0,0,0-2.73-1.77,27.28,27.28,0,0,1-6.65-5.2c-1.9-2-3-5.29-4.9-7.07C3143,2202.92,3134.73,2205.77,3131.18,2207.77Z" transform="translate(-1834.35 -1605.35)" style="fill:#9dcf7e"/><path d="M3077.83,2247.89a4.6,4.6,0,0,0-1.32,3,6.33,6.33,0,0,0,1.83,4.95,3.47,3.47,0,0,0,3.07,1.15c1.42-.32,2.21-1.8,2.8-3.14a5.12,5.12,0,0,0,.45-1.37,5.33,5.33,0,0,0-.58-2.74,6.34,6.34,0,0,0-1-1.91C3081.87,2246.5,3079.06,2246.75,3077.83,2247.89Z" transform="translate(-1834.35 -1605.35)" style="fill:#9dcf7e"/><path d="M3105.73,2259.85a5.46,5.46,0,0,0-.93,1.83,5.6,5.6,0,0,0,1.5,5.84c1.64,1.35,4.45,1.2,5.64-.57a6.14,6.14,0,0,0,.81-2.3c.38-2,.78-5-1.3-6.11C3109.73,2257.6,3106.89,2258.41,3105.73,2259.85Z" transform="translate(-1834.35 -1605.35)" style="fill:#9dcf7e"/></g><g id="Red_Paint" data-name="Red Paint"><path d="M3106.11,2036.84c-2.52,2.89-4.32,6.36-6.9,9.2-3.54,3.88-8.34,6.33-12.65,9.35s-8.4,7.05-9.28,12.23c-.25,1.42-.24,2.88-.62,4.27-.61,2.21-2.17,4.05-2.86,6.24a8.6,8.6,0,0,0,3.07,9.26c2.58,1.87,6,2.11,9.14,2.29l13.42.74a32.9,32.9,0,0,0,10-.45,16.74,16.74,0,0,0,9.6-6.67c2.21-3.21,4.26-7.79,8.15-7.53,2.52.17,4.52,2.53,7.05,2.58,3.47.08,5.39-4,5.89-7.44.35-2.35.42-4.87-.68-7s-3.71-3.57-5.91-2.69c-.67.27-1.38.74-2,.47a1.89,1.89,0,0,1-.91-1.18c-1.24-3.42-.19-7.18.28-10.79s0-7.92-3.12-9.83a18,18,0,0,0-4.29-1.48c-3.51-1.09-5.19-5-8-6.06C3112.19,2031.13,3108.09,2034.58,3106.11,2036.84Z" transform="translate(-1834.35 -1605.35)" style="fill:#ed1c24"/><path d="M3093,2094.09a8.16,8.16,0,0,0-5.78,1.13,4.68,4.68,0,0,0-2.45,4,4.85,4.85,0,0,0,3,3.72c2.63,1.27,6.13,1.09,8.1-1.07s1.39-6.31-1.36-7.28c-1.23-.44-2.75-.28-3.65-1.23" transform="translate(-1834.35 -1605.35)" style="fill:#ed1c24"/></g><g id="Blue_Paint" data-name="Blue Paint"><path d="M3170.18,2157.47c-4.62,5.28-12.61,7.67-15.24,14.18-2.46,6.1,1.32,13.35,6.94,16.77s12.53,3.86,19.11,3.7a28.9,28.9,0,0,0,9.67-1.44c4.5-1.7,8-5.27,11-9a70.63,70.63,0,0,0,8.59-13.91c2.54-5.42,4.4-11.65,2.56-17.35a21.35,21.35,0,0,0-6.56-9.15c-3-2.65-6.54-4.91-10.51-5.42-4.64-.61-6.49,1.7-10,3.86-3.79,2.36-6.79,3.2-9.34,7.36" transform="translate(-1834.35 -1605.35)" style="fill:#4083c4"/><path d="M3162.41,2153.93a.59.59,0,0,0,.06-.5.62.62,0,0,0-.65.09,1.9,1.9,0,0,0-.43.54A12,12,0,0,0,3160,2157a4.73,4.73,0,0,0,.1,3.15,2.28,2.28,0,0,0,.68.91,2.25,2.25,0,0,0,1.6.37,3.58,3.58,0,0,0,1.92-.8,6.72,6.72,0,0,0,.94-1,27.41,27.41,0,0,0,2.32-3,6.71,6.71,0,0,0,.8-1.69,8.32,8.32,0,0,0,.24-1.64l.13-1.68a4.12,4.12,0,0,0,0-1.11,2.69,2.69,0,0,0-2.29-1.94,1.66,1.66,0,0,0-.8,0,2,2,0,0,0-.68.52l-1.82,1.89a5.6,5.6,0,0,0-.86,1,6,6,0,0,0-.61,1.9" transform="translate(-1834.35 -1605.35)" style="fill:#4083c4"/></g><path id="Yellow_Paint" data-name="Yellow Paint" d="M3226.76,2064.2c-6.72-.63-11.27,3.8-15.66,8.91-2.94,3.43-4.71,7.69-7.25,11.42-2.4,3.51-5.46,6.51-8.06,9.86s-4.8,7.25-5,11.49,2,8.83,5.95,10.3c3.72,1.37,7.84-.18,11.8-.12,4.34.07,8.39,2.06,12.2,4.13s7.67,4.3,12,4.93,9.2-.78,11.38-4.53a9.71,9.71,0,0,1,1.19-1.89c1.44-1.49,4-1.09,5.78-.1s3.44,2.45,5.47,2.89a6.51,6.51,0,0,0,6.24-2.35,8.25,8.25,0,0,0,1.54-6.63,5.24,5.24,0,0,0-2.06-3.53c-1.81-1.18-4.18-.54-6.34-.64a2.65,2.65,0,0,1-1.08-.23,2.4,2.4,0,0,1-1.1-1.72c-.88-4.12,3-7.48,5.28-11,3.28-5.24,3-12,1.66-18-1-4.24-2.61-8.6-6.05-11.26a19.23,19.23,0,0,0-6.85-3c-6.93-1.87-14.7-2.35-21,1.15" transform="translate(-1834.35 -1605.35)" style="fill:#f5e747"/><g id="Orange_Paint" data-name="Orange Paint"><path d="M3220.66,2026.77c2.74-2,6.32-4.25,9.21-2.49,2.73,1.65,2.73,5.74,5,8a9,9,0,0,0,4.7,2.11,17.51,17.51,0,0,0,9.42-.29,9.22,9.22,0,0,0,6.11-6.75c.52-3.14-1.53-6.68-4.67-7.22a4.23,4.23,0,0,1-1.84-.49,2.77,2.77,0,0,1-.89-1.66c-1.27-5-.82-10.79-4.18-14.71-3.6-4.22-9.94-4.4-15.49-4.24-4.58.13-9.3.3-13.49,2.17-3.63,1.63-6.58,4.43-9.5,7.13-4.88,4.49-12.27,8.09-18.34,10.77-8.48,3.75-17.35,3.66-26.43,3.49-6.7-.12-9.81,2.7-9,10.4,1.57,14.31,35.43,8.27,44.66,5.68A77.93,77.93,0,0,0,3220.66,2026.77Z" transform="translate(-1834.35 -1605.35)" style="fill:#ee5b23"/><path d="M3223,2038.67a6.7,6.7,0,0,0-.67,6.14,4.65,4.65,0,0,0,1.41,2.18c1.38,1.08,3.36.85,5,.3a4.66,4.66,0,0,0,2.72-1.83,3.93,3.93,0,0,0,.43-2.22C3231.6,2039,3226.47,2033.94,3223,2038.67Z" transform="translate(-1834.35 -1605.35)" style="fill:#ee5b23"/></g></g></g><g id="Brush"><path id="Brush_Metal" data-name="Brush Metal" d="M3100,1955.66a63.91,63.91,0,0,0,18.07,12.49,2.13,2.13,0,0,0,1.6.28c.7-.25.94-1.1,1.13-1.83,2.19-8.18,10.11-13.35,17.71-17.08a38.86,38.86,0,0,1-10.54-13.26c-1.23-2.52-2.28-5.31-4.54-7-1.8-1.33-4.31.58-5.9,2.16-6.81,6.73-13.72,13.62-18.07,22.15C3099.2,1954,3099.48,1955.6,3100,1955.66Z" transform="translate(-1834.35 -1605.35)" style="fill:#a7bdde;stroke:#231f20;stroke-miterlimit:10;stroke-width:3px"/><g id="Brush_Head" data-name="Brush Head"><path d="M3124,1962.74c-3.54,7.44-3.33,16.2-1.41,24.22,1.95,8.17,5.84,16.25,12.64,21.2a49.77,49.77,0,0,0,6.94,4l3.93,2a2.91,2.91,0,0,0,2.51.41c1-.51,1-2,.4-3a12,12,0,0,0-2.57-2.22,15.47,15.47,0,0,1-2.92-3.47c-5-7.42-9.27-15.52-11-24.31a58.31,58.31,0,0,1-.45-18c.18-1.55.4-3.09.67-4.62.16-1,1-3,.64-4-.66-1.71-3,0-4,.75A19.19,19.19,0,0,0,3124,1962.74Z" transform="translate(-1834.35 -1605.35)" style="fill:#fff"/><path d="M3126.34,1987.64c-4-9.73-3.66-13.42-1.12-25.09.26-1.21,3.1-7.56,4.06-8.33s5.08-1.62,6-2.19c3.61-2.23,3.82-2.14,7.89-3.11s13.54-.9,17.25,1c2.24,1.16,3.86,3.21,5.41,5.21a43.93,43.93,0,0,1,5.73,8.66,44.66,44.66,0,0,1,2.37,7.29l1.67,6.35c1.14,4.32,2.28,8.72,2.1,13.18s-1.92,9.08-5.52,11.71a22.42,22.42,0,0,1-5.53,2.67l-14.19,5.28c-2.12.8-3.4,1.7-5.41.79-1.66-.75-7.87-4.8-9-6.2C3132.3,1998.07,3129.89,1996.24,3126.34,1987.64Z" transform="translate(-1834.35 -1605.35)" style="fill:#823d4f"/><path d="M3181.47,1990.64c-1.93,1.88-4.65,2.68-6.9,4.17-2.56,1.69-4.43,4.21-6.56,6.42s-4.76,4.23-7.82,4.42c-2.64.16-5.46-1.05-7.86.07-1.77.83-2.77,2.7-3.65,4.45-.77,1.53-1.44,3.64-.13,4.74a3.86,3.86,0,0,0,1.63.67,86,86,0,0,0,16,2.78,54.74,54.74,0,0,0,22.59-4.3,125.75,125.75,0,0,0,20.39-10.93c1.1-.69,2.35-1.81,1.91-3a2.84,2.84,0,0,0-1-1.14c-4.6-3.77-10.1-6.56-13.89-11.15-2-2.4-4-8.24-8.11-6.82C3184.54,1982.22,3184,1988.14,3181.47,1990.64Z" transform="translate(-1834.35 -1605.35)" style="fill:#ee5b23"/><path d="M3168.19,1960.32a75.73,75.73,0,0,1,8.55,21.67c-1.85.61-3.62-1-4.79-2.56s-2.57-3.36-4.51-3.29a5.6,5.6,0,0,0,.24,4.44c.58,1.41,1.43,2.7,1.94,4.14,1.19,3.4.43,7.58,2.77,10.33a2.48,2.48,0,0,0,1.4.92c1.18.2,2.11-.9,3-1.68,1.72-1.49,4.11-2.09,5.65-3.75s1.93-4,3.15-5.92a7.87,7.87,0,0,1,3.07-2.71,1.85,1.85,0,0,0,1-.79,1.3,1.3,0,0,0,0-.85c-.44-1.58-.35-3.21-1.27-4.57-.79-1.17-2-1.88-2.31-3.24-1.54-5.89-5.83-11.11-9.47-16a22.18,22.18,0,0,0-3-3.47,15.12,15.12,0,0,0-6.73-3.17c-1-.24-6.13-1.54-6.74-.53-.78,1.28,2.7,3.83,3.35,4.51A34.67,34.67,0,0,1,3168.19,1960.32Z" transform="translate(-1834.35 -1605.35)" style="fill:#070908"/><path d="M3133.55,2007.17c10.95,9.93,26.62,13.85,41.28,11.92s28.27-9.3,39.17-19.28c-12-4.27-20.65-14.92-26.73-26.13-3.59-6.63-6.69-13.85-12.44-18.74-4.85-4.14-11.18-6.2-17.5-7-13-1.75-31.35,3.06-36.24,16.93C3116.05,1979.1,3122.83,1997.44,3133.55,2007.17Z" transform="translate(-1834.35 -1605.35)" style="fill:none;stroke:#231f20;stroke-miterlimit:10;stroke-width:3px"/></g><g id="Brush_Tail" data-name="Brush Tail"><path d="M3022,1843.77l-8.38-6.8q-5.12-4.14-10.24-8.28-15-12.14-30.3-24c-2.85-2.21-5.7-4.41-8.61-6.52a5.61,5.61,0,0,0-3.64-1.46,3.81,3.81,0,0,0-3.08,3.61,9.84,9.84,0,0,0,1.25,4.94c4.24,9,10.75,16.8,17.19,24.44l13.13,15.59c4.82,5.72,8.09,9.82,13.27,15.21a20.07,20.07,0,0,0,1.78,2c.79.39,2.59-1.25,3.27-1.81a107.89,107.89,0,0,0,9.3-8.25c1.35-1.33,2.72-2.47,4.13-4a8.26,8.26,0,0,0,1.71-2.3A2.09,2.09,0,0,0,3022,1843.77Z" transform="translate(-1834.35 -1605.35)" style="fill:#171142;stroke:#231f20;stroke-miterlimit:10;stroke-width:3px"/></g></g><g id="Long_Part" data-name="Long Part"><path d="M3083.14,2013.85c-6.18-19.53,1.9-43.57,17-61.26,9.79-11.5,20.62-22.31,28.31-35.31s10.21-31,.19-42.33c-1.23-1.39-2.16-3.4-3.63-4.31-1.74-1.06-4.52-1.42-6.49-1.88a64.56,64.56,0,0,0-39.48,3.32,95.45,95.45,0,0,0-12.37,6.53,187,187,0,0,0-42.52,35.63c-4.13,4.67-1.41,1.64-11.2,13.74a123.76,123.76,0,0,0-10.69,14.54c-6.24,10.56-10.69,22.06-14.73,33.6-5.55,15.86-6.41,27.56-8.19,41.54a199,199,0,0,0,16.53,107.44c.58,1.26,2.09,1.08,3.47,1a49,49,0,0,0,10.09-1.93c1.1-.33,2.26,0,3.14-.78,1.68-1.43,2.11-3.81,2.58-6,2.09-9.65,6.41-19.35,11.3-27.92C3041.93,2062.29,3059.76,2034.66,3083.14,2013.85Z" transform="translate(-1834.35 -1605.35)" style="fill:#5bb8e8;stroke:#231f20;stroke-miterlimit:10;stroke-width:3px"/><path d="M2986.6,2088.07c-7.12-29.24-4.85-64.26,1.66-96.15a116.18,116.18,0,0,1,3.83-14.92c2.27-6.59,4.54-13.58,7.45-20.19,8.08-18.4,25-37.7,32.77-45.65a229.06,229.06,0,0,1,18.56-17.41c1.2-1.37,1.85-2.12.89-1.43a137.75,137.75,0,0,0-20.22,17.28,245.64,245.64,0,0,0-19.57,22.93c-5,6.68-10.55,14.49-13.77,22.29-7.22,17.53-11.56,28.91-14.06,48-1.65,12.56-4.32,28.6-3.87,41.27.21,6,.39,10.09,1.18,17.94.81,8.15,4,23.95,5.05,26.95C2986.6,2089.28,2986.49,2088.07,2986.6,2088.07Z" transform="translate(-1834.35 -1605.35)" style="fill:#fff"/><path d="M3050.47,2045.39c-3-8.45-2.86-17.66-2.65-26.64.28-11.61.57-23.31,3.16-34.63,2-8.83,5.43-17.28,9-25.6a522.4,522.4,0,0,1,27.77-54.93c2.25-3.88,4.6-7.85,5.38-12.27a14.59,14.59,0,0,0-.35-6.76c-.66-2.18-2.66-3.67-3.31-5.56a42.57,42.57,0,0,1,15.69-1.46c5.41.45,10.88,2.41,14.55,6.41,6.27,6.83,5.65,17.82,1.42,26.07s-11.33,14.57-17.68,21.32c-10.53,11.2-19.36,24.17-24.68,38.59s-7.08,30.36-3.56,45.32c.06.26-.45.53-.66.92-2.81,5.1-7.21,9.19-10.55,13.06-4.46,5.16-8.9,10.27-13.59,16.4Z" transform="translate(-1834.35 -1605.35)" style="fill:#5e7bbd"/></g><g id="Grabbing"><path d="M2972.46,2158.86c-.76,6.07-.07,12.23.94,18.27.87,5.21,2,10.45,4.32,15.19,6.23,12.68,20.68,20,34.81,20.34s27.82-5.49,39.43-13.54c4.12-2.85,8.1-6,12.77-7.81s10.32-2,14.35,1c1.89,1.39,3.28,3.36,5.1,4.86,4,3.29,9.72,3.9,14.75,2.64s9.48-4.17,13.59-7.33c13.19-10.18,24.3-24.72,25.24-41.36.22-3.91-.18-8-2.15-11.39s-5.79-5.9-9.68-5.42a28.74,28.74,0,0,1-4.07.66c-1.84,0-3.48-1.07-5.09-1.95-6.07-3.33-12.86-5.1-19.56-6.85a70.27,70.27,0,0,0-13.9-2.62c-12.1-.63-23.63,5-33.83,11.55s-19.88,14.18-31.24,18.41c-1.22.45-2.72.82-3.72,0-1.36-1.16-.49-3.43.75-4.72,2.23-2.35,5.28-3.71,7.92-5.58s5.06-5,4.95-8.26c-.46-12.33-24-11.37-32-7C2984.33,2134.36,2974.15,2145.29,2972.46,2158.86Z" transform="translate(-1834.35 -1605.35)" style="fill:#5bb8e8;stroke:#231f20;stroke-miterlimit:10;stroke-width:3px"/><path d="M2980.29,2145.81c.7-.86,2.21-2.68,2-2.38-3.79,6.45-7.16,16.58-6.07,24,.95,6.38.93,9.63,2.82,15.83a29.88,29.88,0,0,0,9.06,14.59c2.51,2.31,9.1,5.37,12.82,6.81a40.78,40.78,0,0,0,22,1.58c7.43-1.55,7.77-1.65,15.58-4.64,1.23-.48,5.72-3,6.91-3.52,2.17-1,4.24-2.43,6.35-3.54,6.07-3.2,9.36-5.8,15.78-7.22h.19c-2.71.95-2.41.58-5.08,2.06-3.82,2.14-8.18,5.29-11.85,7.8a85.58,85.58,0,0,1-18,9.11,57.11,57.11,0,0,1-20,3.81c-3.24.08-9.24-1.62-12.28-2.76-5.46-2.05-8.15-3.41-12.61-7.18a28.65,28.65,0,0,1-9.39-13.8c-.51-1.7-1.64-5.68-1.94-7.42-1-5.69-1.66-8.91-1.66-14.62a33.78,33.78,0,0,1,3.54-15.44A11.53,11.53,0,0,1,2980.29,2145.81Z" transform="translate(-1834.35 -1605.35)" style="fill:#fff"/><path d="M3125.94,2174.38c-7.15-5.35-13.33-9.51-20.89-14.25-5.21-3.26-10.6-6.41-16.53-8-9.61-2.59-19.92-.92-29.33,2.34s-18.2,8-27.4,11.85c-2.22.93-4.6,1.81-7,1.5a2.84,2.84,0,0,1-2.53-1.71,3.4,3.4,0,0,1,1-2.78,77.32,77.32,0,0,1,51.31-28.52,50.21,50.21,0,0,1,11.94-.09,60.49,60.49,0,0,1,11.52,2.87,73.63,73.63,0,0,1,17.7,8.14c6.76,4.49,11.92,10.22,17.34,16.25" transform="translate(-1834.35 -1605.35)" style="fill:#5e7bbd"/></g></g><g id="Book"><g id="Hand-2" data-name="Hand"><path d="M2883,2477.59A99.13,99.13,0,0,0,2842,2533c-1.55,5.44-2.5,11.72.68,16.39,2.64,3.88,7.6,5.63,12.3,5.66s9.25-1.42,13.76-2.72a249.79,249.79,0,0,1,57.78-9.45c34.47-1.53,68.88,4.1,103.37,4a310.08,310.08,0,0,0,36.92-2.39,78.71,78.71,0,0,0,10.71-1.66l12.4-3.31c5-1.32,9.93-2.65,14.75-4.44a123.34,123.34,0,0,0,17.62-8.54c10.46-5.93,20.75-12.76,27.91-22.42,3.86-5.19,6.69-11,9.5-16.88,11.79-24.4,13.43-52.67,8.64-79.35-1.08-6-2.5-12.06-5.35-17.48a56.13,56.13,0,0,0-10.79-13.64,85.77,85.77,0,0,0-22-16.12,128,128,0,0,0-16.39-6.24c-13.93-4.59-28-9.21-42.59-10.73-3.85-.4-7.73-.59-11.6-.84,2,2.3,3.78,4.47,5.8,6.78,7.09,8,14.22,16.13,19.78,25.3s9.51,19.56,9.65,30.28a29.94,29.94,0,0,1-1,8.64,28.43,28.43,0,0,1-4.62,9,32.41,32.41,0,0,1-7.45,7.38,54.6,54.6,0,0,1-10,5.1l-23,9.78a152.65,152.65,0,0,1-16.26,6.18c-1.56.46-3.33.85-4.77.06-6.25,4.9-14.31,5.47-22.22,6.14l-32.91,2.79c-8.08.68-16.16,1.37-24.26,1.64-5.35.18-10.72.18-16.05.69-17,1.64-32.94,8.38-48.62,15C2883.57,2477.06,2883,2478.15,2883,2477.59Z" transform="translate(-1834.35 -1605.35)" style="fill:#5bb8e8"/><path d="M3074.69,2355.37c13,1.06,25.52,5,37.93,9,8.85,2.8,17.9,5.7,25.24,11.39a54.45,54.45,0,0,1,12.41,14.32,89.47,89.47,0,0,1,6,82.37c-10,22.64-29.49,40.29-51.71,51.22s-47.08,15.57-71.81,17-49.49-4.34-74.22-5.53c27.27-2.74,54.26-4.42,79.28-15.63s47.77-28.53,62.44-51.69c5.07-8,8-16.78,7.61-26.25a33,33,0,0,0-.52-5,21.76,21.76,0,0,0-13.93-16c1.48-7,0-13.88-1.42-20.83a61.84,61.84,0,0,0-2-7.86c-.57-1.65-1.28-3.25-2-4.84l-5.69-12.81c-.7-1.57-1.4-3.15-2.22-4.65s-1.82-3-2.69-4.53c-1-1.73-1.79-3.54-2.61-5.34C3074.25,2358.44,3073.69,2356.24,3074.69,2355.37Z" transform="translate(-1834.35 -1605.35)" style="fill:#5e7bbd"/></g><g id="Book-2" data-name="Book"><path d="M2991.24,2363.27c-3,1-6,2.09-9,3.18-1.23-3-2.51-6-3.85-9,10.47-21.16,18.54-32.52,22.32-34.93.24,1.58.35,6-2.33,17.08a7.23,7.23,0,0,0-1,.32,8.12,8.12,0,0,0-4.34,10.26,7.34,7.34,0,0,0,1.67,2.63C2993.66,2356.11,2992.48,2359.61,2991.24,2363.27Z" transform="translate(-1834.35 -1605.35)" style="fill:#a92626"/><path d="M2971.5,2357.27c-1.38,2.84-2.76,5.82-4.12,8.83-3-1.24-6-2.46-8.85-3.57-7.87-25.36-8.92-38-8.14-41.29C2953.05,2323.09,2960.61,2333.14,2971.5,2357.27Z" transform="translate(-1834.35 -1605.35)" style="fill:#a92626"/><path d="M2957.78,2406.66c3-1,6-2,9-3.17,1.26,3.07,2.53,6.09,3.86,9-10.43,21.05-18.48,32.45-22.36,34.95C2947.67,2444,2949.19,2431.39,2957.78,2406.66Z" transform="translate(-1834.35 -1605.35)" style="fill:#a92626"/><path d="M2941.62,2365.89a7.75,7.75,0,0,0,2.6-1.75c3,1,6.09,2.18,9.36,3.37,1,3.1,2,6.21,3.08,9.3-2.94,1.33-5.84,2.64-8.68,4-22.54-12.11-31.94-20.3-33.77-23.24,1.66-.34,6.09-.42,17.2,2.61l.33,1.22A7.57,7.57,0,0,0,2941.62,2365.89Z" transform="translate(-1834.35 -1605.35)" style="fill:#a92626"/><path d="M2840.44,2331.55,2936.07,2584l196.83-79.71-95.62-252.42Zm31.34,6.55,147.34-59.66,58.12,153.39-147.35,59.67Zm241.56,152.47-165.63,67.07-16.1-42.52,165.62-67.07Z" transform="translate(-1834.35 -1605.35)" style="fill:#c62b2a"/><path d="M2992.61,2377.64c1.2-3.09,2.32-6.15,3.42-9.15,24.41-8.07,36.57-9.09,39.72-8.32-1.79,2.82-11.39,10.61-34.61,21.82C2998.35,2380.52,2995.52,2379.06,2992.61,2377.64Z" transform="translate(-1834.35 -1605.35)" style="fill:#a92626"/><path d="M2977.52,2412.66q2.07-4.24,4.15-8.84c3,1.3,5.94,2.48,8.82,3.59,7.87,25.36,8.91,38,8.18,41.27-1.71-1.21-5.94-6-13-19.21a8.05,8.05,0,0,0,1-7.59,7.6,7.6,0,0,0-7.27-5.05C2978.81,2415.49,2978.15,2414.08,2977.52,2412.66Z" transform="translate(-1834.35 -1605.35)" style="fill:#a92626"/><path d="M2956.41,2392.3c-1.2,3.09-2.32,6.14-3.4,9.19l-5.1,1.64a7.51,7.51,0,0,0-9.53-3.71,7.78,7.78,0,0,0-4.76,7.73c-12.67,3.09-18.45,3.06-20.31,2.6,1.79-2.81,11.4-10.57,34.58-21.77C2950.67,2389.42,2953.5,2390.87,2956.41,2392.3Z" transform="translate(-1834.35 -1605.35)" style="fill:#a92626"/><path d="M2871.78,2338.1l58.11,153.4,147.35-59.67-58.12-153.39Zm136.28,47.65a197,197,0,0,1,22.6,14.27c.25-.13.5-.25.75-.35a7.62,7.62,0,0,1,9.85,4.52,8,8,0,0,1-.44,6.73,5.68,5.68,0,0,1,.12,4.33,5.52,5.52,0,0,1-3.15,3c-7.21,2.92-27.9-3.72-40-8.08,8.14,27.38,9.23,42.51,3.27,44.93-3.18,1.28-8.74.28-20.81-22.49a7.65,7.65,0,0,1-7.78-5,8.29,8.29,0,0,1-.41-4.26c-6.19,11.72-15.67,27.83-22.18,30.46a5.38,5.38,0,0,1-4.26.06c-2.23-1.05-8.87-4.08,4.7-44.77-.69.19-1.4.43-2.13.63a7.59,7.59,0,0,1-4.26,4.43,7.39,7.39,0,0,1-7.4-1.14c-23.51,6-28.09,2.72-29.42-.78-.89-2.34-3.56-9.39,33.79-28-36.69-20.34-33.82-27.26-32.86-29.56a5.5,5.5,0,0,1,3.15-3c3.56-1.44,10.77-.68,21.41,2.17a7.5,7.5,0,0,1,13.27,1.78,8.47,8.47,0,0,1,.54,2.48l4.74,1.66c-8.14-27.38-9.23-42.52-3.23-45s15.11,9.46,27.12,35.27c6-11.67,16.81-31.07,24-34a5.27,5.27,0,0,1,4.28,0c3,1.35,5.72,5.44,1.11,24.75a7.86,7.86,0,0,1,2.74,3.58,8,8,0,0,1-4.29,10.24,6.75,6.75,0,0,1-2.48.54c-.58,1.87-1.17,3.73-1.82,5.67,39.67-12.58,42.34-5.53,43.23-3.19S3045.43,2367.08,3008.06,2385.75Z" transform="translate(-1834.35 -1605.35)" style="fill:#a92626"/><path d="M3041.87,2357.69c-.89-2.34-3.56-9.39-43.23,3.19.65-1.94,1.24-3.8,1.82-5.67a6.75,6.75,0,0,0,2.48-.54,8,8,0,0,0,4.29-10.24,7.86,7.86,0,0,0-2.74-3.58c4.61-19.31,1.86-23.4-1.11-24.75a5.27,5.27,0,0,0-4.28,0c-7.21,2.92-18,22.32-24,34-12-25.81-21.16-37.68-27.12-35.27s-4.91,17.57,3.23,45l-4.74-1.66a8.47,8.47,0,0,0-.54-2.48,7.5,7.5,0,0,0-13.27-1.78c-10.64-2.85-17.85-3.61-21.41-2.17a5.5,5.5,0,0,0-3.15,3c-1,2.3-3.83,9.22,32.86,29.56-37.35,18.61-34.68,25.66-33.79,28,1.33,3.5,5.91,6.76,29.42.78a7.39,7.39,0,0,0,7.4,1.14,7.59,7.59,0,0,0,4.26-4.43c.73-.2,1.44-.44,2.13-.63-13.57,40.69-6.93,43.72-4.7,44.77a5.38,5.38,0,0,0,4.26-.06c6.51-2.63,16-18.74,22.18-30.46a8.29,8.29,0,0,0,.41,4.26,7.65,7.65,0,0,0,7.78,5c12.07,22.77,17.63,23.77,20.81,22.49,6-2.42,4.87-17.55-3.27-44.93,12.06,4.36,32.75,11,40,8.08a5.52,5.52,0,0,0,3.15-3,5.68,5.68,0,0,0-.12-4.33,8,8,0,0,0,.44-6.73,7.62,7.62,0,0,0-9.85-4.52c-.25.1-.5.22-.75.35a197,197,0,0,0-22.6-14.27C3045.43,2367.08,3042.77,2360.07,3041.87,2357.69Zm-94,45.44a7.51,7.51,0,0,0-9.53-3.71,7.78,7.78,0,0,0-4.76,7.73c-12.67,3.09-18.45,3.06-20.31,2.6,1.79-2.81,11.4-10.57,34.58-21.77,2.78,1.44,5.61,2.89,8.52,4.32-1.2,3.09-2.32,6.14-3.4,9.19Zm.35,44.3c-.59-3.43.93-16,9.52-40.77,3-1,6-2,9-3.17,1.26,3.07,2.53,6.09,3.86,9C2960.19,2433.53,2952.14,2444.93,2948.26,2447.43Zm8.4-70.62c-2.94,1.33-5.84,2.64-8.68,4-22.54-12.11-31.94-20.3-33.77-23.24,1.66-.34,6.09-.42,17.2,2.61l.33,1.22a7.57,7.57,0,0,0,9.88,4.51,7.75,7.75,0,0,0,2.6-1.75c3,1,6.09,2.18,9.36,3.37C2954.53,2370.61,2955.57,2373.72,2956.66,2376.81Zm-6.27-55.57c2.66,1.85,10.22,11.9,21.11,36-1.38,2.84-2.76,5.82-4.12,8.83-3-1.24-6-2.46-8.85-3.57C2950.66,2337.17,2949.61,2324.49,2950.39,2321.24Zm48.28,127.44c-1.71-1.21-5.94-6-13-19.21a8.05,8.05,0,0,0,1-7.59,7.6,7.6,0,0,0-7.27-5.05c-.6-1.34-1.26-2.75-1.89-4.17q2.07-4.24,4.15-8.84c3,1.3,5.94,2.48,8.82,3.59C2998.36,2432.77,2999.4,2445.41,2998.67,2448.68Zm2-126.16c.24,1.58.35,6-2.33,17.08a6.86,6.86,0,0,0-1,.32,8.12,8.12,0,0,0-4.34,10.26,7.34,7.34,0,0,0,1.67,2.63c-1,3.3-2.21,6.8-3.45,10.46-3,1-6,2.09-9,3.18-1.23-3-2.51-6-3.85-9C2988.87,2336.29,2996.94,2324.93,3000.72,2322.52ZM3026.8,2405a8.06,8.06,0,0,0,.29,4.9,7.42,7.42,0,0,0,1.3,2.26c-6.81-1-17.88-4.05-32.95-9.76-.94-3.06-2-6.17-3.08-9.3,2.95-1.29,5.83-2.64,8.68-4A219.79,219.79,0,0,1,3026.8,2405Zm-25.66-23c-2.79-1.47-5.62-2.93-8.53-4.35,1.2-3.09,2.32-6.15,3.42-9.15,24.41-8.07,36.57-9.09,39.72-8.32C3034,2363,3024.36,2370.78,3001.14,2382Z" transform="translate(-1834.35 -1605.35)" style="fill:#f4f4f4"/><path d="M2992.36,2393.13c2.95-1.29,5.83-2.64,8.68-4A219.79,219.79,0,0,1,3026.8,2405a8.06,8.06,0,0,0,.29,4.9,7.42,7.42,0,0,0,1.3,2.26c-6.81-1-17.88-4.05-32.95-9.76C2994.5,2399.37,2993.46,2396.26,2992.36,2393.13Z" transform="translate(-1834.35 -1605.35)" style="fill:#a92626"/><polygon points="1262.88 842.7 1278.99 885.22 1113.37 952.29 1097.26 909.77 1262.88 842.7" style="fill:#a92626"/><polygon points="1101.73 978.62 1088.67 979.39 993.04 726.97 1006.1 726.2 1101.73 978.62" style="fill:#701919"/><polygon points="1006.1 726.2 993.04 726.97 983.28 701.21 996.34 700.44 1006.1 726.2" style="fill:#591716"/><polygon points="1193.17 620.73 1202.93 646.49 1006.1 726.2 996.34 700.44 1193.17 620.73" style="fill:#a92626"/><polygon points="996.34 700.44 983.28 701.21 979.25 690.57 992.31 689.8 996.34 700.44" style="fill:#701919"/><polygon points="992.31 689.8 979.25 690.57 1176.09 610.86 1189.14 610.1 992.31 689.8" style="fill:#7c1c1d"/><polygon points="992.31 689.8 1189.14 610.1 1193.17 620.73 996.34 700.44 992.31 689.8" style="fill:#c62b2a"/><polygon points="979.39 690.03 1088.67 979.39 1101.86 978.97 1298.56 898.91 1188.97 609.64 1176.09 610.86 979.39 690.03" style="fill:none;stroke:#231f20;stroke-miterlimit:10;stroke-width:3px"/></g><g id="Over-5" data-name="Over"><path d="M3092.73,2416.15a28.67,28.67,0,0,1-4.63,9c-2.09,2.82-5.77,4.23-8.65,6.23a47.11,47.11,0,0,1-9.19,5c-7.67,3.26-15.16,6.58-22.84,9.84-5.34,2.27-10.5,5.69-16.06,7.33-1.57.46-3.34.85-4.77.07-6.25,4.89-14.31,5.46-22.23,6.13l-32.91,2.79c-8.08.69-16.16,1.37-24.26,1.64-5.35.18-10.72.18-16.05.7-16.95,1.63-32.94,8.38-48.62,15-.05-.56-.6.53-.65,0a99.1,99.1,0,0,0-41,55.44c-1.54,5.44-2.5,11.72.69,16.39,2.64,3.88,7.6,5.64,12.29,5.66s9.09-2.32,13.6-3.62a251.55,251.55,0,0,1,58-9.75c34.46-1.53,68.69,3,103.29,4.39a225.27,225.27,0,0,0,37-1.63,78.47,78.47,0,0,0,10.71-1.66l12.4-3.31c5-1.32,9.94-2.65,14.75-4.44a123.28,123.28,0,0,0,17.62-8.53c10.46-5.93,20.75-12.77,27.92-22.42a108.39,108.39,0,0,0,10.34-16.91c11.79-24.38,15.26-52.56,10.35-80a64.41,64.41,0,0,0-6.22-18" transform="translate(-1834.35 -1605.35)" style="fill:#5bb8e8"/><path d="M3112.62,2364.41c8.85,2.8,17.9,5.7,25.24,11.39a54.61,54.61,0,0,1,12.41,14.32,89.47,89.47,0,0,1,6,82.37c-10,22.64-29.49,40.3-51.71,51.22s-47.08,15.57-71.81,17-49.49-4.35-74.22-5.54c27.27-2.73,54.26-4.42,79.28-15.63s47.77-28.53,62.44-51.69c5.07-8,8-16.77,7.61-26.24a33.11,33.11,0,0,0-.52-5c-1.44-7.26-6.89-18.35-13.89-20.78l2.17-6.28" transform="translate(-1834.35 -1605.35)" style="fill:#5e7bbd"/><path d="M3038.39,2455.27a206.43,206.43,0,0,1-47.07,10.13c-9.94,1-20.11,1.44-30.08,1.91-23.9,1.12-50,1.36-71.29,12.67a118.77,118.77,0,0,0-11.72,6.81,76.75,76.75,0,0,0-14,12.4c-5.68,6.77-9.94,14.91-13.76,22.89s-6.78,16.9-4.63,25.48c.23.92,2.53,3.07,3.27,3.68,1,.83,3.06.74,4.36.54a120.84,120.84,0,0,0,21.53-5.59c9.76-3.34,20.57-6.4,30.25-6,1.82.08,5.73,2.55,7.35,3.13,2.59.93-5.64.29-6.17.44-16.59,4.57-33.17,8-50.33,13-3.4,1-7.37,1.07-10.3-.92-3.72-2.52-4.19-7.77-3.9-12.25a80.63,80.63,0,0,1,21.8-50c12.88-13.56,30.28-22.25,48.36-27.06s36.94-5.93,55.65-6.1c7.43-.07,14.88,0,22.28-.74,8.62-.88,17.08-2.88,25.52-4.87l27.55-6.52c6.75-1.59,13.44-3.09,19.73-6,3.23-1.51,6.14-2.79,9.09-4.51,2.29-1.34,6.55-4.89,8.86-5-6.12,5.79-14.79,9.35-20.72,12.53A143.17,143.17,0,0,1,3038.39,2455.27Z" transform="translate(-1834.35 -1605.35)" style="fill:#fff"/><path d="M3072.78,2342.25c18.93,3.47,40.52,12.45,59.09,19.44,5.84,2.2,11.73,4.8,16.07,9.28,3.83,3.94,8.1,8.08,11,12.75,6,9.6,9.45,15.82,11.6,27.09,7.47,39.06-3.71,82.27-34.52,107.41-23.59,19.25-54.63,27.21-85,29s-60.79-2-91.2-3.62-61.58-.94-90.22,9.4c-5,1.8-10,3.91-15.3,4.05s-11.09-2.24-13.19-7.11a17.3,17.3,0,0,1-.92-7.84c1.36-23.3,15.14-44.85,34-58.64s42.24-20.35,65.53-21.86c10.68-.7,21.41-.39,32.11-.8a241.3,241.3,0,0,0,104.33-28.3c6.21-3.32,12.61-7.28,15.63-13.64.78-1.63,3-12.66,3.34-14.44" transform="translate(-1834.35 -1605.35)" style="fill:none;stroke:#231f20;stroke-miterlimit:10;stroke-width:3px"/></g></g></svg>